<svg xmlns="http://www.w3.org/2000/svg" width="37.997" height="37.997" viewBox="0 0 37.997 37.997">
  <g id="air-freight" transform="translate(0.001 -0.501)">
    <path id="Trazado_474" data-name="Trazado 474" d="M238.5,254.426a.742.742,0,1,0,1.049,0A.741.741,0,0,0,238.5,254.426Zm0,0" transform="translate(-220.603 -234.879)" fill="#0095a9"/>
    <path id="Trazado_475" data-name="Trazado 475" d="M29.7,2.672c-1.274.986-1.621,1.494-6.137,5.964l-2.708-.441L22.1,6.952A2.226,2.226,0,0,0,18.95,3.8L15.441,7.313l-12.274-2a2.5,2.5,0,0,0-1.87,4.5l12.231,8.857-2.29,2.29a18.622,18.622,0,0,0-2.459,3.212L3.074,22.5A2.4,2.4,0,0,0,1.033,26.77l4.676,3.237c-.814,1.8-1.309,3.1-1.332,3.156a.742.742,0,0,0,.957.957c.06-.023,1.359-.518,3.156-1.332l3.237,4.676A2.4,2.4,0,0,0,16,35.422l-1.677-5.7a18.634,18.634,0,0,0,3.212-2.459l2.29-2.29L28.682,37.2a2.5,2.5,0,0,0,4.5-1.871l-2-12.273,3.509-3.509A2.226,2.226,0,0,0,31.545,16.4L30.3,17.64l-.441-2.708c4.475-4.521,4.975-4.86,5.961-6.134l0,0c2.289-2.967,2.825-5.963,1.332-7.456S32.669.381,29.7,2.672ZM20,4.853A.742.742,0,1,1,21.05,5.9l-2,2-1.805-.294ZM2.167,8.612A1.02,1.02,0,0,1,2.929,6.78L22.271,9.929l-7.68,7.68Zm-.416,15.54a.915.915,0,0,1,.9-.231l5.335,1.569c-.546.955-1.1,2.011-1.645,3.153L1.878,25.55A.915.915,0,0,1,1.751,24.151ZM14.346,36.746a.915.915,0,0,1-1.4-.126L9.854,32.151c1.143-.55,2.2-1.1,3.153-1.645l1.569,5.335A.915.915,0,0,1,14.346,36.746Zm18.249-19.3a.742.742,0,0,1,1.049,1.05L30.89,21.251,30.6,19.446Zm-.878,18.12a1.02,1.02,0,0,1-1.832.763l-9-12.423,7.68-7.68ZM16.485,26.209a18.69,18.69,0,0,1-3.552,2.622,54.991,54.991,0,0,1-6.51,3.243,54.285,54.285,0,0,1,3.315-6.629,18.373,18.373,0,0,1,2.55-3.433C30.416,3.927,29.342,4.859,30.442,3.98a3.854,3.854,0,0,1,3.043,1.032,3.854,3.854,0,0,1,1.033,3.043C33.635,9.157,34.557,8.094,16.485,26.209Zm19.3-20.1A4.9,4.9,0,0,0,32.393,2.71c1.074-.545,2.883-1.155,3.716-.322C36.767,3.046,36.6,4.5,35.787,6.1Zm0,0" transform="translate(0 0)" fill="#0095a9"/>
    <path id="Trazado_476" data-name="Trazado 476" d="M268.894,197.858l-2.1,2.1a.742.742,0,1,0,1.05,1.05l2.1-2.1a.742.742,0,1,0-1.049-1.049Zm0,0" transform="translate(-246.795 -182.51)" fill="#0095a9"/>
    <path id="Trazado_477" data-name="Trazado 477" d="M325.457,141.288l-2.1,2.1a.742.742,0,0,0,1.05,1.05l2.1-2.1a.742.742,0,0,0-1.049-1.05Zm0,0" transform="translate(-299.159 -130.138)" fill="#0095a9"/>
  </g>
</svg>
