<svg xmlns="http://www.w3.org/2000/svg" width="46.734" height="41.236" viewBox="0 0 46.734 41.236">
  <g id="ambulance" transform="translate(0 -30.119)">
    <path id="Trazado_467" data-name="Trazado 467" d="M161.939,33.136a.913.913,0,0,1-.913-.913V31.032a.913.913,0,0,1,1.826,0v1.192A.913.913,0,0,1,161.939,33.136Z" transform="translate(-146.328)" fill="#0095a9"/>
    <path id="Trazado_468" data-name="Trazado 468" d="M105.749,56.411a.91.91,0,0,1-.645-.267l-.843-.843a.913.913,0,1,1,1.291-1.291l.843.843a.913.913,0,0,1-.646,1.558Z" transform="translate(-94.501 -21.468)" fill="#0095a9"/>
    <path id="Trazado_469" data-name="Trazado 469" d="M209.742,56.411a.913.913,0,0,1-.645-1.558l.843-.843A.913.913,0,0,1,211.23,55.3l-.843.843A.91.91,0,0,1,209.742,56.411Z" transform="translate(-189.768 -21.468)" fill="#0095a9"/>
    <path id="Trazado_470" data-name="Trazado 470" d="M112.338,205.656h-4.086a.913.913,0,0,1-.913-.913v-2.234h-2.232a.913.913,0,0,1-.913-.913v-4.088a.913.913,0,0,1,.913-.913h2.232v-2.234a.913.913,0,0,1,.913-.913h4.086a.913.913,0,0,1,.913.913v2.234h2.232a.913.913,0,0,1,.913.913V201.6a.913.913,0,0,1-.913.913h-2.232v2.234A.913.913,0,0,1,112.338,205.656Zm-3.173-1.826h2.26V201.6a.913.913,0,0,1,.913-.913h2.232v-2.263h-2.232a.913.913,0,0,1-.913-.913v-2.234h-2.26v2.234a.913.913,0,0,1-.913.913h-2.232v2.263h2.232a.913.913,0,0,1,.913.913Z" transform="translate(-94.684 -148.421)" fill="#0095a9"/>
    <path id="Trazado_471" data-name="Trazado 471" d="M45.822,110.738h-.473v-3.482a5.033,5.033,0,0,0-1.727-3.8l-3.993-3.479-.28-.2-2.306-7.487a5.154,5.154,0,0,0-4.95-3.655H19.3v-.389a3.69,3.69,0,0,0-7.381,0v.389H3.66a2.277,2.277,0,0,0-2.274,2.275v19.827H.913a.913.913,0,0,0-.913.913v4.574a.913.913,0,0,0,.913.913H5a5.04,5.04,0,0,0,9.709,0h4.586a.913.913,0,0,0,0-1.826H14.873a5.022,5.022,0,0,0-1.14-2.748H33a5.022,5.022,0,0,0-1.14,2.748H27.548a.913.913,0,0,0,0,1.826h4.478a5.04,5.04,0,0,0,9.709,0h4.087a.913.913,0,0,0,.913-.913v-4.574a.913.913,0,0,0-.913-.913ZM35.3,92.828l2.132,6.923H29.316v-9.29h2.776A3.337,3.337,0,0,1,35.3,92.828ZM13.746,88.246a1.865,1.865,0,0,1,3.73,0v.389H13.746v-.389ZM3.212,90.911a.45.45,0,0,1,.449-.45h23.83v20.277H3.212ZM1.826,112.563H5.977a5.022,5.022,0,0,0-1.14,2.748H1.826Zm11.243,3.217a3.214,3.214,0,1,1-3.214-3.217A3.219,3.219,0,0,1,13.069,115.78Zm16.247-14.2h9.364l3.741,3.26a3.208,3.208,0,0,1,1.1,2.42v3.482H29.316ZM36.88,119a3.217,3.217,0,1,1,3.214-3.217A3.219,3.219,0,0,1,36.88,119Zm8.029-3.686H41.9a5.022,5.022,0,0,0-1.14-2.748h4.151Z" transform="translate(0 -49.468)" fill="#0095a9"/>
    <path id="Trazado_472" data-name="Trazado 472" d="M247.7,423.351a.912.912,0,1,1,.9-.779A.921.921,0,0,1,247.7,423.351Z" transform="translate(-224.263 -355.682)" fill="#0095a9"/>
  </g>
</svg>
