<svg xmlns="http://www.w3.org/2000/svg" width="64.733" height="80.959" viewBox="0 0 64.733 80.959">
  <g id="budget_1_" data-name="budget (1)" transform="translate(-51.306)">
    <g id="Grupo_424" data-name="Grupo 424" transform="translate(58.067 6.761)">
      <g id="Grupo_423" data-name="Grupo 423">
        <path id="Trazado_578" data-name="Trazado 578" d="M100.653,51.245v-4.4c.934.306,1.521.922,1.521,1.494a1.268,1.268,0,1,0,2.535,0c0-2.021-1.7-3.668-4.056-4.109v-.2a1.268,1.268,0,0,0-2.535,0v.2c-2.354.441-4.056,2.087-4.056,4.109,0,2.824,2.256,4.011,4.056,4.695v4.4c-.934-.306-1.521-.922-1.521-1.494a1.268,1.268,0,0,0-2.535,0c0,2.021,1.7,3.668,4.056,4.109v.2a1.268,1.268,0,0,0,2.535,0v-.2c2.354-.441,4.056-2.087,4.056-4.109C104.709,53.115,102.454,51.928,100.653,51.245Zm-2.535-.982c-1.264-.619-1.521-1.16-1.521-1.929,0-.571.587-1.188,1.521-1.494Zm2.535,7.171V54.01c1.264.619,1.521,1.16,1.521,1.929C102.174,56.511,101.587,57.127,100.653,57.433Z" transform="translate(-94.061 -42.756)" fill="#0095a9"/>
      </g>
    </g>
    <g id="Grupo_426" data-name="Grupo 426" transform="translate(71.588 9.465)">
      <g id="Grupo_425" data-name="Grupo 425" transform="translate(0)">
        <path id="Trazado_579" data-name="Trazado 579" d="M191.659,59.858H180.842a1.268,1.268,0,0,0,0,2.535h10.817a1.268,1.268,0,1,0,0-2.535Z" transform="translate(-179.574 -59.858)" fill="#0095a9"/>
      </g>
    </g>
    <g id="Grupo_428" data-name="Grupo 428" transform="translate(71.588 20.282)">
      <g id="Grupo_427" data-name="Grupo 427" transform="translate(0)">
        <path id="Trazado_580" data-name="Trazado 580" d="M182.194,128.268h-1.352a1.268,1.268,0,0,0,0,2.535h1.352a1.268,1.268,0,1,0,0-2.535Z" transform="translate(-179.574 -128.268)" fill="#0095a9"/>
      </g>
    </g>
    <g id="Grupo_430" data-name="Grupo 430" transform="translate(58.067 29.747)">
      <g id="Grupo_429" data-name="Grupo 429" transform="translate(0)">
        <path id="Trazado_581" data-name="Trazado 581" d="M133.19,188.124H95.33a1.268,1.268,0,1,0,0,2.535h37.86a1.268,1.268,0,1,0,0-2.535Z" transform="translate(-94.062 -188.124)" fill="#0095a9"/>
      </g>
    </g>
    <g id="Grupo_432" data-name="Grupo 432" transform="translate(66.179 37.86)">
      <g id="Grupo_431" data-name="Grupo 431" transform="translate(0)">
        <path id="Trazado_582" data-name="Trazado 582" d="M150.692,239.431h-4.056a1.268,1.268,0,1,0,0,2.535h4.056a1.268,1.268,0,0,0,0-2.535Z" transform="translate(-145.368 -239.431)" fill="#0095a9"/>
      </g>
    </g>
    <g id="Grupo_434" data-name="Grupo 434" transform="translate(58.067 37.86)">
      <g id="Grupo_433" data-name="Grupo 433" transform="translate(0)">
        <path id="Trazado_583" data-name="Trazado 583" d="M98.034,239.431h-2.7a1.268,1.268,0,0,0,0,2.535h2.7a1.268,1.268,0,1,0,0-2.535Z" transform="translate(-94.062 -239.431)" fill="#0095a9"/>
      </g>
    </g>
    <g id="Grupo_436" data-name="Grupo 436" transform="translate(66.179 43.268)">
      <g id="Grupo_435" data-name="Grupo 435" transform="translate(0)">
        <path id="Trazado_584" data-name="Trazado 584" d="M150.692,273.636h-4.056a1.268,1.268,0,1,0,0,2.535h4.056a1.268,1.268,0,0,0,0-2.535Z" transform="translate(-145.368 -273.636)" fill="#0095a9"/>
      </g>
    </g>
    <g id="Grupo_438" data-name="Grupo 438" transform="translate(58.067 43.268)">
      <g id="Grupo_437" data-name="Grupo 437" transform="translate(0)">
        <path id="Trazado_585" data-name="Trazado 585" d="M98.034,273.636h-2.7a1.268,1.268,0,0,0,0,2.535h2.7a1.268,1.268,0,1,0,0-2.535Z" transform="translate(-94.062 -273.636)" fill="#0095a9"/>
      </g>
    </g>
    <g id="Grupo_440" data-name="Grupo 440" transform="translate(66.179 48.677)">
      <g id="Grupo_439" data-name="Grupo 439" transform="translate(0)">
        <path id="Trazado_586" data-name="Trazado 586" d="M150.692,307.841h-4.056a1.268,1.268,0,1,0,0,2.535h4.056a1.268,1.268,0,1,0,0-2.535Z" transform="translate(-145.368 -307.841)" fill="#0095a9"/>
      </g>
    </g>
    <g id="Grupo_442" data-name="Grupo 442" transform="translate(58.067 48.677)">
      <g id="Grupo_441" data-name="Grupo 441" transform="translate(0)">
        <path id="Trazado_587" data-name="Trazado 587" d="M98.034,307.841h-2.7a1.268,1.268,0,1,0,0,2.535h2.7a1.268,1.268,0,1,0,0-2.535Z" transform="translate(-94.062 -307.841)" fill="#0095a9"/>
      </g>
    </g>
    <g id="Grupo_444" data-name="Grupo 444" transform="translate(66.179 54.085)">
      <g id="Grupo_443" data-name="Grupo 443" transform="translate(0)">
        <path id="Trazado_588" data-name="Trazado 588" d="M150.692,342.045h-4.056a1.268,1.268,0,0,0,0,2.535h4.056a1.268,1.268,0,0,0,0-2.535Z" transform="translate(-145.368 -342.045)" fill="#0095a9"/>
      </g>
    </g>
    <g id="Grupo_446" data-name="Grupo 446" transform="translate(58.067 54.085)">
      <g id="Grupo_445" data-name="Grupo 445" transform="translate(0)">
        <path id="Trazado_589" data-name="Trazado 589" d="M98.034,342.045h-2.7a1.268,1.268,0,0,0,0,2.535h2.7a1.268,1.268,0,1,0,0-2.535Z" transform="translate(-94.062 -342.045)" fill="#0095a9"/>
      </g>
    </g>
    <g id="Grupo_448" data-name="Grupo 448" transform="translate(66.179 59.494)">
      <g id="Grupo_447" data-name="Grupo 447" transform="translate(0)">
        <path id="Trazado_590" data-name="Trazado 590" d="M150.692,376.25h-4.056a1.268,1.268,0,0,0,0,2.535h4.056a1.268,1.268,0,0,0,0-2.535Z" transform="translate(-145.368 -376.25)" fill="#0095a9"/>
      </g>
    </g>
    <g id="Grupo_450" data-name="Grupo 450" transform="translate(58.067 59.494)">
      <g id="Grupo_449" data-name="Grupo 449" transform="translate(0)">
        <path id="Trazado_591" data-name="Trazado 591" d="M98.034,376.25h-2.7a1.268,1.268,0,0,0,0,2.535h2.7a1.268,1.268,0,1,0,0-2.535Z" transform="translate(-94.062 -376.25)" fill="#0095a9"/>
      </g>
    </g>
    <g id="Grupo_452" data-name="Grupo 452" transform="translate(85.11 20.282)">
      <g id="Grupo_451" data-name="Grupo 451">
        <path id="Trazado_592" data-name="Trazado 592" d="M267.706,128.268h-1.352a1.268,1.268,0,1,0,0,2.535h1.352a1.268,1.268,0,1,0,0-2.535Z" transform="translate(-265.086 -128.268)" fill="#0095a9"/>
      </g>
    </g>
    <g id="Grupo_454" data-name="Grupo 454" transform="translate(91.87 20.282)">
      <g id="Grupo_453" data-name="Grupo 453">
        <path id="Trazado_593" data-name="Trazado 593" d="M310.461,128.268h-1.352a1.268,1.268,0,1,0,0,2.535h1.352a1.268,1.268,0,1,0,0-2.535Z" transform="translate(-307.841 -128.268)" fill="#0095a9"/>
      </g>
    </g>
    <g id="Grupo_456" data-name="Grupo 456" transform="translate(78.349 20.282)">
      <g id="Grupo_455" data-name="Grupo 455" transform="translate(0)">
        <path id="Trazado_594" data-name="Trazado 594" d="M224.95,128.268H223.6a1.268,1.268,0,1,0,0,2.535h1.352a1.268,1.268,0,1,0,0-2.535Z" transform="translate(-222.33 -128.268)" fill="#0095a9"/>
      </g>
    </g>
    <g id="Grupo_458" data-name="Grupo 458" transform="translate(71.588 14.874)">
      <g id="Grupo_457" data-name="Grupo 457" transform="translate(0)">
        <path id="Trazado_595" data-name="Trazado 595" d="M194.362,94.063H180.841a1.268,1.268,0,0,0,0,2.535h13.521a1.268,1.268,0,1,0,0-2.535Z" transform="translate(-179.573 -94.063)" fill="#0095a9"/>
      </g>
    </g>
    <g id="Grupo_460" data-name="Grupo 460" transform="translate(51.306)">
      <g id="Grupo_459" data-name="Grupo 459" transform="translate(0)">
        <path id="Trazado_596" data-name="Trazado 596" d="M110.716,35.155h-5.493V14.789a1.267,1.267,0,0,0-.371-.9L91.33.371a1.267,1.267,0,0,0-.9-.371H55.278a3.976,3.976,0,0,0-3.972,3.972v64.9a3.976,3.976,0,0,0,3.972,3.972H75.644v2.789a5.33,5.33,0,0,0,5.324,5.324h29.747a5.33,5.33,0,0,0,5.324-5.324V40.479A5.33,5.33,0,0,0,110.716,35.155ZM91.7,4.328l9.194,9.194h-6.4A2.792,2.792,0,0,1,91.7,10.733ZM75.644,40.479V70.311H55.278a1.438,1.438,0,0,1-1.437-1.437V3.972a1.438,1.438,0,0,1,1.437-1.437H89.166v8.2a5.33,5.33,0,0,0,5.324,5.324h8.2v19.1H80.969A5.33,5.33,0,0,0,75.644,40.479ZM113.5,75.635a2.792,2.792,0,0,1-2.789,2.789H80.969a2.792,2.792,0,0,1-2.789-2.789V40.479a2.792,2.792,0,0,1,2.789-2.789h29.747a2.792,2.792,0,0,1,2.789,2.789V75.635Z" transform="translate(-51.306)" fill="#0095a9"/>
      </g>
    </g>
    <g id="Grupo_462" data-name="Grupo 462" transform="translate(81.053 40.564)">
      <g id="Grupo_461" data-name="Grupo 461" transform="translate(0)">
        <path id="Trazado_597" data-name="Trazado 597" d="M266.39,256.533H242.052a2.623,2.623,0,0,0-2.62,2.62v5.409a2.623,2.623,0,0,0,2.62,2.62H266.39a2.623,2.623,0,0,0,2.62-2.62v-5.409A2.623,2.623,0,0,0,266.39,256.533Zm.085,8.028a.084.084,0,0,1-.084.084H242.052a.084.084,0,0,1-.084-.084v-5.409a.084.084,0,0,1,.084-.084H266.39a.084.084,0,0,1,.084.084v5.409Z" transform="translate(-239.432 -256.533)" fill="#0095a9"/>
      </g>
    </g>
    <g id="Grupo_464" data-name="Grupo 464" transform="translate(81.053 55.437)">
      <g id="Grupo_463" data-name="Grupo 463" transform="translate(0)">
        <path id="Trazado_598" data-name="Trazado 598" d="M244.756,350.6h-2.7a2.623,2.623,0,0,0-2.62,2.62v2.7a2.623,2.623,0,0,0,2.62,2.62h2.7a2.623,2.623,0,0,0,2.62-2.62v-2.7A2.623,2.623,0,0,0,244.756,350.6Zm.085,5.324a.084.084,0,0,1-.084.084h-2.7a.084.084,0,0,1-.084-.084v-2.7a.084.084,0,0,1,.084-.084h2.7a.084.084,0,0,1,.084.084v2.7Z" transform="translate(-239.432 -350.596)" fill="#0095a9"/>
      </g>
    </g>
    <g id="Grupo_466" data-name="Grupo 466" transform="translate(102.687 55.437)">
      <g id="Grupo_465" data-name="Grupo 465">
        <path id="Trazado_599" data-name="Trazado 599" d="M381.575,350.6h-2.7a2.623,2.623,0,0,0-2.62,2.62v2.7a2.623,2.623,0,0,0,2.62,2.62h2.7a2.623,2.623,0,0,0,2.62-2.62v-2.7A2.623,2.623,0,0,0,381.575,350.6Zm.085,5.324a.084.084,0,0,1-.084.084h-2.7a.084.084,0,0,1-.084-.084v-2.7a.084.084,0,0,1,.084-.084h2.7a.084.084,0,0,1,.084.084Z" transform="translate(-376.251 -350.596)" fill="#0095a9"/>
      </g>
    </g>
    <g id="Grupo_468" data-name="Grupo 468" transform="translate(91.87 55.437)">
      <g id="Grupo_467" data-name="Grupo 467">
        <path id="Trazado_600" data-name="Trazado 600" d="M313.166,350.6h-2.7a2.623,2.623,0,0,0-2.62,2.62v2.7a2.623,2.623,0,0,0,2.62,2.62h2.7a2.623,2.623,0,0,0,2.62-2.62v-2.7A2.623,2.623,0,0,0,313.166,350.6Zm.084,5.324a.084.084,0,0,1-.084.084h-2.7a.084.084,0,0,1-.084-.084v-2.7a.084.084,0,0,1,.084-.084h2.7a.084.084,0,0,1,.084.084Z" transform="translate(-307.842 -350.596)" fill="#0095a9"/>
      </g>
    </g>
    <g id="Grupo_470" data-name="Grupo 470" transform="translate(81.053 66.254)">
      <g id="Grupo_469" data-name="Grupo 469" transform="translate(0)">
        <path id="Trazado_601" data-name="Trazado 601" d="M244.756,419.006h-2.7a2.623,2.623,0,0,0-2.62,2.62v2.7a2.623,2.623,0,0,0,2.62,2.62h2.7a2.623,2.623,0,0,0,2.62-2.62v-2.7A2.623,2.623,0,0,0,244.756,419.006Zm.085,5.324a.084.084,0,0,1-.084.084h-2.7a.084.084,0,0,1-.084-.084v-2.7a.084.084,0,0,1,.084-.084h2.7a.084.084,0,0,1,.084.084v2.7Z" transform="translate(-239.432 -419.006)" fill="#0095a9"/>
      </g>
    </g>
    <g id="Grupo_472" data-name="Grupo 472" transform="translate(102.687 66.254)">
      <g id="Grupo_471" data-name="Grupo 471">
        <path id="Trazado_602" data-name="Trazado 602" d="M381.575,419.006h-2.7a2.623,2.623,0,0,0-2.62,2.62v2.7a2.623,2.623,0,0,0,2.62,2.62h2.7a2.623,2.623,0,0,0,2.62-2.62v-2.7A2.623,2.623,0,0,0,381.575,419.006Zm.085,5.324a.084.084,0,0,1-.084.084h-2.7a.084.084,0,0,1-.084-.084v-2.7a.084.084,0,0,1,.084-.084h2.7a.084.084,0,0,1,.084.084Z" transform="translate(-376.251 -419.006)" fill="#0095a9"/>
      </g>
    </g>
    <g id="Grupo_474" data-name="Grupo 474" transform="translate(91.87 66.254)">
      <g id="Grupo_473" data-name="Grupo 473">
        <path id="Trazado_603" data-name="Trazado 603" d="M313.166,419.006h-2.7a2.623,2.623,0,0,0-2.62,2.62v2.7a2.623,2.623,0,0,0,2.62,2.62h2.7a2.623,2.623,0,0,0,2.62-2.62v-2.7A2.623,2.623,0,0,0,313.166,419.006Zm.084,5.324a.084.084,0,0,1-.084.084h-2.7a.084.084,0,0,1-.084-.084v-2.7a.084.084,0,0,1,.084-.084h2.7a.084.084,0,0,1,.084.084Z" transform="translate(-307.842 -419.006)" fill="#0095a9"/>
      </g>
    </g>
  </g>
</svg>
