<svg xmlns="http://www.w3.org/2000/svg" width="223.099" height="81.21" viewBox="0 0 223.099 81.21">
  <g id="CASHIN-03" transform="translate(-67.785 -45.994)">
    <g id="Grupo_14" data-name="Grupo 14" transform="translate(146.394 73.232)">
      <g id="Grupo_12" data-name="Grupo 12" transform="translate(0 0)">
        <g id="Grupo_10" data-name="Grupo 10">
          <path id="Trazado_24" data-name="Trazado 24" d="M294.49,141.041A13.606,13.606,0,0,1,287.9,142.8a9.077,9.077,0,0,1-7.125-2.95,12.591,12.591,0,0,1,0-15.437,9.439,9.439,0,0,1,7.316-3.1,12.747,12.747,0,0,1,7.048,2.107l.69.421.038-4.9-.23-.115a16.333,16.333,0,0,0-18.425,2.643A15.123,15.123,0,0,0,273,132.346a14.909,14.909,0,0,0,3.792,10.572,13.8,13.8,0,0,0,10.534,4.252,17.481,17.481,0,0,0,8.657-2.337l.345-.192-1.456-3.831Z" transform="translate(-273 -117.1)" fill="#0095a9"/>
          <path id="Trazado_25" data-name="Trazado 25" d="M351.9,117.3l-11.3,29.534h4.788l2.72-7.431h10.381l2.873,7.431h5.095L355,117.3Zm4.98,17.927h-7.125l2.911-8.083c.268-.728.5-1.417.689-2.03.191.613.421,1.3.69,2.107Z" transform="translate(-314.705 -117.223)" fill="#0095a9"/>
          <path id="Trazado_26" data-name="Trazado 26" d="M428.269,132.446l-.038-.038c-2.03-1.226-4.022-2.49-6.052-3.754-2.03-1.3-3.026-2.681-3.026-4.137a2.557,2.557,0,0,1,1.226-2.337,5.5,5.5,0,0,1,3.179-.8,11.153,11.153,0,0,1,6.129,1.877l.69.46.038-4.9-.268-.115a14.509,14.509,0,0,0-6.78-1.494,9.5,9.5,0,0,0-6.589,2.183,7.232,7.232,0,0,0-2.452,5.554,8.347,8.347,0,0,0,3.409,6.665c1.992,1.226,3.984,2.452,5.9,3.677,1.992,1.3,2.988,2.758,2.988,4.252a2.9,2.9,0,0,1-1.571,2.643,6.17,6.17,0,0,1-3.333.881,10.027,10.027,0,0,1-6.014-1.992l-.421-.306L413.1,144.55l.345.23a14.592,14.592,0,0,0,8.389,2.452,11,11,0,0,0,6.972-2.222,7.223,7.223,0,0,0,2.835-5.9A8.2,8.2,0,0,0,428.269,132.446Z" transform="translate(-359.434 -117.162)" fill="#0095a9"/>
          <path id="Trazado_27" data-name="Trazado 27" d="M493.808,117.7v12.334H479.826V117.7H475v29.419h4.826V134.363h13.982v12.756h4.827V117.7Z" transform="translate(-397.622 -117.47)" fill="#0095a9"/>
        </g>
        <g id="Grupo_11" data-name="Grupo 11" transform="translate(107.793 0.192)">
          <rect id="Rectángulo_2" data-name="Rectángulo 2" width="4.788" height="29.419" transform="translate(0 0.038)" fill="#006580"/>
          <path id="Trazado_28" data-name="Trazado 28" d="M604.879,117.638l.038,18.961v2.107q-.8-1.264-2.3-3.218L589.135,117.6H584.5v29.419h4.788V127.483c0-.69,0-1.3-.038-1.877q.8,1.149,2.069,2.873l14.1,18.578h4.252V117.638Z" transform="translate(-572.97 -117.6)" fill="#006580"/>
        </g>
      </g>
      <g id="Grupo_13" data-name="Grupo 13" transform="translate(26.239 38.191)">
        <path id="Trazado_29" data-name="Trazado 29" d="M346.9,223.312a3.984,3.984,0,0,1-2.03.575,3.347,3.347,0,0,1-2.49-1,3.422,3.422,0,0,1-.881-2.49,3.587,3.587,0,0,1,1-2.566,3.893,3.893,0,0,1,4.329-.651v.919a3.277,3.277,0,0,0-1.762-.536,2.3,2.3,0,0,0-1.839.8,2.734,2.734,0,0,0-.689,1.915,2.766,2.766,0,0,0,.689,1.954,2.313,2.313,0,0,0,1.8.766,3.755,3.755,0,0,0,1.647-.421Z" transform="translate(-341.5 -216.8)" fill="#006580"/>
        <path id="Trazado_30" data-name="Trazado 30" d="M358.2,220.424a3.408,3.408,0,0,1,.958-2.528,3.208,3.208,0,0,1,2.49-1,3.327,3.327,0,0,1,2.6,1.073,3.56,3.56,0,0,1,.881,2.452,3.346,3.346,0,0,1-3.486,3.524,3.341,3.341,0,0,1-2.375-.843A3.494,3.494,0,0,1,358.2,220.424Zm5.9,0a2.93,2.93,0,0,0-.651-1.954,2.313,2.313,0,0,0-1.8-.766,2.286,2.286,0,0,0-1.8.728,3.314,3.314,0,0,0,0,3.945,2.591,2.591,0,0,0,3.6,0A2.93,2.93,0,0,0,364.1,220.424Z" transform="translate(-351.803 -216.862)" fill="#006580"/>
        <path id="Trazado_31" data-name="Trazado 31" d="M383.737,223.833h-1l-.69-1.8h-2.681l-.651,1.8H377.8l2.643-6.933h.613Zm-1.992-2.6-.728-2.107a4.25,4.25,0,0,1-.268-.881h0a6.755,6.755,0,0,1-.268.843l-.766,2.107h2.03Z" transform="translate(-363.895 -216.862)" fill="#006580"/>
        <path id="Trazado_32" data-name="Trazado 32" d="M400.3,223.312a3.984,3.984,0,0,1-2.03.575,3.347,3.347,0,0,1-2.49-1,3.422,3.422,0,0,1-.881-2.49,3.587,3.587,0,0,1,1-2.566,3.893,3.893,0,0,1,4.329-.651v.919a3.277,3.277,0,0,0-1.762-.536,2.3,2.3,0,0,0-1.839.8,2.734,2.734,0,0,0-.689,1.915,2.766,2.766,0,0,0,.689,1.954,2.313,2.313,0,0,0,1.8.766,3.755,3.755,0,0,0,1.647-.421Z" transform="translate(-374.445 -216.8)" fill="#006580"/>
        <path id="Trazado_33" data-name="Trazado 33" d="M418.016,223.9h-.958v-3.1h-3.6v3.1H412.5V217h.958v2.988h3.6V217h.958Z" transform="translate(-385.303 -216.923)" fill="#006580"/>
        <path id="Trazado_34" data-name="Trazado 34" d="M442.662,217l-.345.843h-2.26v2.183h2.26v.8h-2.26v3.1H439.1v-6.9h3.562Z" transform="translate(-401.714 -216.923)" fill="#006580"/>
        <path id="Trazado_35" data-name="Trazado 35" d="M453.158,223.9H452.2V217h.958Z" transform="translate(-409.796 -216.923)" fill="#006580"/>
        <path id="Trazado_36" data-name="Trazado 36" d="M465.337,223.9h-.881l-3.371-4.443a9.256,9.256,0,0,1-.728-1.034h-.038a5.67,5.67,0,0,1,.038.843V223.9H459.4V217h.958l3.256,4.29a6.284,6.284,0,0,1,.728,1.111V217h.958v6.9Z" transform="translate(-414.237 -216.923)" fill="#006580"/>
        <path id="Trazado_37" data-name="Trazado 37" d="M484.037,223.833h-1l-.689-1.8h-2.681l-.651,1.8H478.1l2.643-6.933h.613Zm-2.03-2.6-.728-2.107a4.246,4.246,0,0,1-.268-.881h0a6.745,6.745,0,0,1-.268.843l-.766,2.107h2.03Z" transform="translate(-425.774 -216.862)" fill="#006580"/>
        <path id="Trazado_38" data-name="Trazado 38" d="M502.5,223.9h-.881l-3.371-4.443a9.24,9.24,0,0,1-.728-1.034h0a5.666,5.666,0,0,1,.038.843V223.9H496.6V217h.958l3.256,4.29a6.291,6.291,0,0,1,.728,1.111V217h.958Z" transform="translate(-437.188 -216.923)" fill="#006580"/>
        <path id="Trazado_39" data-name="Trazado 39" d="M521.3,223.312a3.984,3.984,0,0,1-2.03.575,3.347,3.347,0,0,1-2.49-1,3.422,3.422,0,0,1-.881-2.49,3.588,3.588,0,0,1,1-2.566,3.893,3.893,0,0,1,4.329-.651v.919a3.277,3.277,0,0,0-1.762-.536,2.3,2.3,0,0,0-1.839.8,2.734,2.734,0,0,0-.69,1.915,2.766,2.766,0,0,0,.69,1.954,2.313,2.313,0,0,0,1.8.766,3.755,3.755,0,0,0,1.647-.421Z" transform="translate(-449.095 -216.8)" fill="#006580"/>
        <path id="Trazado_40" data-name="Trazado 40" d="M534.558,223.9H533.6V217h.958Z" transform="translate(-460.015 -216.923)" fill="#006580"/>
        <path id="Trazado_41" data-name="Trazado 41" d="M544.462,223.9H540.9V217h3.524l-.306.843h-2.26v2.145h2.26v.8h-2.26v2.3h2.6Z" transform="translate(-464.518 -216.923)" fill="#006580"/>
        <path id="Trazado_42" data-name="Trazado 42" d="M559.012,223.9h-1.073c-.766-1.226-1.187-1.915-1.3-2.069-.345-.5-.536-.766-.689-.8h-.69V223.9H554.3V217h1.571a2.478,2.478,0,0,1,1.8.575,1.787,1.787,0,0,1,.536,1.341,1.84,1.84,0,0,1-.383,1.188,2.019,2.019,0,0,1-.919.651h0a3.785,3.785,0,0,1,.728.958Q557.8,222,559.012,223.9Zm-1.762-4.9c0-.766-.46-1.187-1.341-1.187h-.651v2.452h.69a1.136,1.136,0,0,0,.919-.383A1.32,1.32,0,0,0,557.25,218.992Z" transform="translate(-472.785 -216.923)" fill="#006580"/>
        <path id="Trazado_43" data-name="Trazado 43" d="M568.1,220.424a3.407,3.407,0,0,1,.958-2.528,3.209,3.209,0,0,1,2.49-1,3.327,3.327,0,0,1,2.6,1.073,3.56,3.56,0,0,1,.881,2.452,3.346,3.346,0,0,1-3.486,3.524,3.342,3.342,0,0,1-2.375-.843A3.494,3.494,0,0,1,568.1,220.424Zm5.9,0a2.93,2.93,0,0,0-.651-1.954,2.313,2.313,0,0,0-1.8-.766,2.286,2.286,0,0,0-1.8.728,3.314,3.314,0,0,0,0,3.945,2.591,2.591,0,0,0,3.6,0A2.93,2.93,0,0,0,574,220.424Z" transform="translate(-481.299 -216.862)" fill="#006580"/>
      </g>
    </g>
    <g id="Grupo_18" data-name="Grupo 18" transform="translate(67.785 45.994)">
      <g id="Grupo_15" data-name="Grupo 15" transform="translate(0 0)">
        <path id="Trazado_44" data-name="Trazado 44" d="M91.655,127.2a3.784,3.784,0,0,1-1.685-.421A43.105,43.105,0,0,1,110.2,46a42.822,42.822,0,0,1,31.372,12.909,3.494,3.494,0,1,1-4.98,4.9,35.7,35.7,0,0,0-26.316-10.8A36.092,36.092,0,0,0,93.3,120.655a3.467,3.467,0,0,1,1.341,4.75A3.319,3.319,0,0,1,91.655,127.2Z" transform="translate(-67.785 -45.994)" fill="#9cd4db"/>
      </g>
      <g id="Grupo_16" data-name="Grupo 16" transform="translate(23.467 22.583)">
        <path id="Trazado_45" data-name="Trazado 45" d="M149.753,146.109a20.451,20.451,0,0,1-11.683-3.639,20.724,20.724,0,0,1-8.657-13.292,20.448,20.448,0,0,1,3.294-15.514A20.724,20.724,0,0,1,146,105.007a3.486,3.486,0,0,1,1.264,6.857,13.756,13.756,0,0,0,5.056,27.044,14.2,14.2,0,0,0,8.58-5.363,3.5,3.5,0,0,1,5.554,4.252,20.885,20.885,0,0,1-12.832,7.968A22.339,22.339,0,0,1,149.753,146.109Z" transform="translate(-129.048 -104.949)" fill="#006580"/>
      </g>
      <g id="Grupo_17" data-name="Grupo 17" transform="translate(11.802 11.187)">
        <path id="Trazado_46" data-name="Trazado 46" d="M130.467,138.979a31.89,31.89,0,1,1,21.988-55.007,3.5,3.5,0,0,1-4.827,5.056,24.628,24.628,0,0,0-18.387-6.818,24.911,24.911,0,1,0,19.076,42.251,3.495,3.495,0,0,1,5.018,4.865,31.653,31.653,0,0,1-21.221,9.576A12.134,12.134,0,0,1,130.467,138.979Z" transform="translate(-98.594 -75.2)" fill="#0095a9"/>
      </g>
    </g>
  </g>
</svg>
