<?xml version="1.0" ?>

<!DOCTYPE svg  PUBLIC '-//W3C//DTD SVG 1.1//EN'  'http://www.w3.org/Graphics/SVG/1.1/DTD/svg11.dtd'>

<!-- Uploaded to: SVG Repo, www.svgrepo.com, Generator: SVG Repo Mixer Tools -->
<svg fill="#000000" width="800px" height="800px" viewBox="0 0 32 32" style="fill-rule:evenodd;clip-rule:evenodd;stroke-linejoin:round;stroke-miterlimit:2;" version="1.1" xml:space="preserve" xmlns="http://www.w3.org/2000/svg" xmlns:serif="http://www.serif.com/" xmlns:xlink="http://www.w3.org/1999/xlink">

<g transform="matrix(1,0,0,1,-336,0)">

<g transform="matrix(1.03846,0,0,1.03846,-14.0385,-0.115385)">

<path d="M341.801,21.963C340.658,20.076 340,17.864 340,15.5C340,8.601 345.601,3 352.5,3C359.399,3 365,8.601 365,15.5C365,22.399 359.399,28 352.5,28C350.676,28 348.943,27.608 347.38,26.905L340,28L341.801,21.963Z" style="fill:rgb(144,224,239);"/>

</g>

<path d="M339.826,22.822L338.08,28.676C337.982,29.003 338.059,29.358 338.283,29.616C338.507,29.875 338.847,30.001 339.185,29.951L346.565,28.856C348.24,29.567 350.084,29.962 352.019,29.962C359.735,29.962 366,23.697 366,15.981C366,8.265 359.735,2 352.019,2C344.303,2 338.038,8.265 338.038,15.981C338.038,18.465 338.688,20.799 339.826,22.822ZM341.867,22.978C341.947,22.708 341.91,22.416 341.764,22.174C340.669,20.366 340.038,18.246 340.038,15.981C340.038,9.368 345.407,4 352.019,4C358.632,4 364,9.368 364,15.981C364,22.593 358.632,27.962 352.019,27.962C350.271,27.962 348.61,27.587 347.113,26.913C346.938,26.834 346.745,26.807 346.555,26.835L340.446,27.742C340.446,27.742 341.867,22.978 341.867,22.978ZM346,14C344.896,14 344,14.896 344,16C344,17.104 344.896,18 346,18C347.104,18 348,17.104 348,16C348,14.896 347.104,14 346,14ZM352,14C350.896,14 350,14.896 350,16C350,17.104 350.896,18 352,18C353.104,18 354,17.104 354,16C354,14.896 353.104,14 352,14ZM358,14C356.896,14 356,14.896 356,16C356,17.104 356.896,18 358,18C359.104,18 360,17.104 360,16C360,14.896 359.104,14 358,14Z" style="fill:rgb(25,144,167);"/>

</g>

</svg>