<svg id="dollar" xmlns="http://www.w3.org/2000/svg" width="41.334" height="33.948" viewBox="0 0 41.334 33.948">
  <g id="Grupo_299" data-name="Grupo 299" transform="translate(0 15.936)">
    <g id="Grupo_298" data-name="Grupo 298">
      <path id="Trazado_459" data-name="Trazado 459" d="M38.228,245.118a3.047,3.047,0,0,0-1.251.279,3.066,3.066,0,0,0-3.835-.857l-.042.024-1.269.753a3.063,3.063,0,0,0-3.769-.776l-.051.029-4.859,2.976c-1.1-.324-2.316-.68-3.493-1.014-1.242-.352-2.436-.68-3.393-.921-.479-.121-.9-.22-1.241-.291-.172-.036-.324-.064-.46-.084a2.563,2.563,0,0,0-.381-.035,2.345,2.345,0,0,0-.284.021c-.358.047-.867.156-1.467.3-1.227.288-2.792.708-3.657.943V245a1.853,1.853,0,0,0-1.847-1.847H1.847A1.853,1.853,0,0,0,0,245v14.316a1.853,1.853,0,0,0,1.847,1.847h5.08a1.853,1.853,0,0,0,1.847-1.847V258.2c1.1.239,3.53.764,6.1,1.291,1.735.356,3.528.713,5.009.981.741.134,1.4.247,1.946.326a10.052,10.052,0,0,0,1.266.13,2.7,2.7,0,0,0,.719-.115,9.94,9.94,0,0,0,1.584-.641,79.389,79.389,0,0,0,7.915-4.812c2.824-1.885,5.465-3.746,6.759-4.637a3.013,3.013,0,0,0,1.265-2.5A3.107,3.107,0,0,0,38.228,245.118ZM7.389,259.313a.468.468,0,0,1-.462.462H1.847a.468.468,0,0,1-.462-.462V245a.468.468,0,0,1,.462-.462h5.08a.468.468,0,0,1,.462.462Zm31.893-9.73c-1.591,1.1-5.153,3.611-8.6,5.85-1.722,1.118-3.416,2.167-4.8,2.928a19.656,19.656,0,0,1-1.807.893,5.749,5.749,0,0,1-.635.227,1.459,1.459,0,0,1-.345.064,9.245,9.245,0,0,1-1.065-.115c-1.82-.267-5.225-.947-8.158-1.559-1.468-.306-2.819-.6-3.8-.808l-1.289-.279V247.9l.526-.144c.73-.2,1.845-.5,2.844-.741.5-.123.971-.233,1.345-.311.187-.039.35-.07.475-.09a1.9,1.9,0,0,1,.219-.026,1.687,1.687,0,0,1,.174.019c.382.057,1.166.241,2.121.49,2.877.751,7.413,2.11,9.245,2.666a4.14,4.14,0,0,1,1.585.829,1.842,1.842,0,0,1,.427.563,1.581,1.581,0,0,1,.151.69,1.959,1.959,0,0,1-1.945,1.96l-1.788-.175-6.1-.783a.693.693,0,1,0-.177,1.374L24,255l1.894.186h.034a3.348,3.348,0,0,0,3.346-3.346,2.971,2.971,0,0,0-.284-1.285A3.479,3.479,0,0,0,27.77,249.2a6.058,6.058,0,0,0-1.644-.759l-1.189-.359,3.76-2.3a1.671,1.671,0,0,1,1.916.266l-1.857,1.1a.693.693,0,0,0,.708,1.192l4.312-2.557a1.673,1.673,0,0,1,1.981.325l-5.02,2.977a.693.693,0,0,0,.708,1.191l5.429-3.22a.66.66,0,0,0,.429-.255l.169-.1a1.694,1.694,0,0,1,.761-.19,1.72,1.72,0,0,1,1.719,1.72A1.641,1.641,0,0,1,39.283,249.583Z" transform="translate(0 -243.149)" fill="#0095a9"/>
    </g>
  </g>
  <g id="Grupo_301" data-name="Grupo 301" transform="translate(17.78 0)">
    <g id="Grupo_300" data-name="Grupo 300">
      <path id="Trazado_460" data-name="Trazado 460" d="M227.495,53.631a6.168,6.168,0,0,0-2.013-.889c-.1-.027-.188-.048-.284-.073V48.439a3.212,3.212,0,0,1,1.508.572,1.717,1.717,0,0,1,.509.618,1.815,1.815,0,0,1,.169.789.693.693,0,1,0,1.385,0,3.2,3.2,0,0,0-.3-1.386,3.275,3.275,0,0,0-1.562-1.52,5.29,5.29,0,0,0-1.7-.466v-.609a.693.693,0,1,0-1.385,0v.571a4.834,4.834,0,0,0-1.352.289,3.421,3.421,0,0,0-1.713,1.371,3.308,3.308,0,0,0-.506,1.75,2.782,2.782,0,0,0,1.3,2.463,6.768,6.768,0,0,0,1.992.795l.273.069v4.549a2.83,2.83,0,0,1-1.537-.585,1.8,1.8,0,0,1-.648-1.427.693.693,0,1,0-1.385,0,3.2,3.2,0,0,0,1.138,2.484,4.244,4.244,0,0,0,2.432.926v.6a.693.693,0,0,0,1.385,0v-.627a4.967,4.967,0,0,0,2.143-.66,2.951,2.951,0,0,0,1.049-1.1,3.686,3.686,0,0,0-.014-3.282A3.07,3.07,0,0,0,227.495,53.631Zm-3.682-1.318a4.876,4.876,0,0,1-1.611-.665,1.38,1.38,0,0,1-.418-.482,1.621,1.621,0,0,1-.156-.749,1.91,1.91,0,0,1,.538-1.324,2.149,2.149,0,0,1,.788-.5,3.412,3.412,0,0,1,.859-.191v3.913Zm3.358,4.933a1.508,1.508,0,0,1-.388.461,2.619,2.619,0,0,1-1.011.463,4.927,4.927,0,0,1-.573.1V54.1a5.863,5.863,0,0,1,1.126.426,2.021,2.021,0,0,1,.775.656,1.919,1.919,0,0,1,.284,1.1A2,2,0,0,1,227.171,57.246Z" transform="translate(-220.242 -45.744)" fill="#0095a9"/>
    </g>
  </g>
</svg>
