<?xml version="1.0" encoding="utf-8"?>
<!-- Uploaded to: SVG Repo, www.svgrepo.com, Generator: SVG Repo Mixer Tools -->
<svg width="800px" height="800px" viewBox="0 0 24 24" fill="none" xmlns="http://www.w3.org/2000/svg">
<g clip-path="url(#clip0_1383_124922)">
<path fill-rule="evenodd" clip-rule="evenodd" d="M23.3533 1.35352C23.7438 1.74404 23.7438 2.37721 23.3533 2.76773L2.76748 23.3535C2.37696 23.744 1.7438 23.744 1.35327 23.3535L0.646164 22.6464C0.25564 22.2559 0.255641 21.6227 0.646165 21.2322L3.87169 18.0067C2.73572 16.8882 1.8787 15.6816 1.27296 14.6799C0.867402 14.0092 0.568856 13.421 0.370367 12.9971C0.27101 12.785 0.196402 12.6133 0.145717 12.4922C0.120366 12.4317 0.100973 12.3838 0.0874364 12.3497L0.0715024 12.3091L0.0667999 12.2969L0.0652601 12.2928L0.0646926 12.2913C0.0646926 12.2913 0.0642597 12.2902 0.999765 11.9371L0.0739539 11.5593L0.0743572 11.5583L0.0754044 11.5557L0.0784618 11.5483L0.0884377 11.5245C0.0968071 11.5046 0.108623 11.4769 0.123909 11.4419C0.154474 11.372 0.198955 11.2727 0.257542 11.1484C0.374643 10.8998 0.548544 10.55 0.780854 10.1325C1.24425 9.29981 1.94654 8.18638 2.90279 7.0685C4.80627 4.84327 7.80917 2.5 11.9998 2.5C14.2445 2.5 16.1542 3.17475 17.7342 4.14417L21.2319 0.646409C21.6225 0.255885 22.2556 0.255885 22.6462 0.646409L23.3533 1.35352ZM8.70226 13.1761L13.1759 8.70251C12.8083 8.57139 12.4124 8.5 11.9998 8.5C10.0668 8.5 8.49976 10.067 8.49976 12C8.49976 12.4126 8.57115 12.8085 8.70226 13.1761Z" fill="#000000"/>
<path d="M0.0739539 11.5593C0.0739539 11.5593 0.0736299 11.5601 0.999765 11.9371L0.0642597 12.2902L-0.0742188 11.9233L0.0739539 11.5593Z" fill="#000000"/>
<path d="M21.3154 7.27014L22.003 8.22161C22.6472 9.11314 23.1236 9.93795 23.4399 10.542C23.5984 10.8445 23.7175 11.0931 23.7981 11.2688C23.8384 11.3567 23.8691 11.4265 23.8904 11.4758C23.901 11.5004 23.9093 11.52 23.9152 11.5341L23.9224 11.5513L23.9246 11.5567L23.9259 11.5598L22.9998 11.9371L23.935 12.291L23.9337 12.2947L23.9307 12.3023L23.9213 12.3267C23.9133 12.3469 23.9021 12.3751 23.8876 12.4108C23.8586 12.482 23.8162 12.583 23.7603 12.7095C23.6485 12.9623 23.4818 13.318 23.2575 13.7424C22.81 14.5889 22.1266 15.721 21.1819 16.8577C19.2983 19.1244 16.2928 21.5 11.9998 21.5C11.127 21.5 10.3029 21.4013 9.52729 21.2228L7.76758 20.818L21.3154 7.27014Z" fill="#000000"/>
<path d="M23.935 12.291C23.935 12.291 23.9354 12.2902 22.9998 11.9371C23.926 11.5601 23.9259 11.5598 23.9259 11.5598L24.0738 11.9233L23.935 12.291Z" fill="#000000"/>
</g>
<defs>
<clipPath id="clip0_1383_124922">
<rect width="24" height="24" fill="white"/>
</clipPath>
</defs>
</svg>