<svg id="high-five" xmlns="http://www.w3.org/2000/svg" width="95.669" height="95.694" viewBox="0 0 95.669 95.694">
  <g id="Grupo_283" data-name="Grupo 283" transform="translate(75.947 91.956)">
    <g id="Grupo_282" data-name="Grupo 282">
      <path id="Trazado_451" data-name="Trazado 451" d="M409.6,492.548a1.868,1.868,0,1,0,.548,1.321A1.88,1.88,0,0,0,409.6,492.548Z" transform="translate(-406.414 -492)" fill="#0095a9"/>
    </g>
  </g>
  <g id="Grupo_285" data-name="Grupo 285" transform="translate(35.112)">
    <g id="Grupo_284" data-name="Grupo 284">
      <path id="Trazado_452" data-name="Trazado 452" d="M247.192,31.372a7.309,7.309,0,0,0-4.8-3.09,7.391,7.391,0,0,0-7.765,3.765V12.326a7.241,7.241,0,0,0-10.84-6.289,7.246,7.246,0,0,0-14.288,0,7.241,7.241,0,0,0-10.8,5.58,7.242,7.242,0,0,0-10.772,6.329,1.869,1.869,0,1,0,3.738,0,3.509,3.509,0,0,1,7-.364v4.983a1.869,1.869,0,1,0,3.738,0V12.326a3.509,3.509,0,0,1,7-.364V26.5c0,.086.019.707.019.707a1.869,1.869,0,0,0,3.738,0V12.326c0-.167-.008-.333-.019-.5V7.247a3.509,3.509,0,0,1,7.017,0v4.582c-.011.164-.019.33-.019.5V38.611a1.869,1.869,0,0,0,3.738,0l.019-26.648a3.509,3.509,0,0,1,7,.364V39.973a2.661,2.661,0,0,0,5.246.634l1.455-5.935a3.627,3.627,0,0,1,7.082,1.565l-2.816,14.28a24.4,24.4,0,0,1-6.733,12.6l-5.814,5.8a1.868,1.868,0,0,0-.549,1.323V86.91a1.869,1.869,0,0,0,3.738,0v-15.9l5.265-5.25a28.125,28.125,0,0,0,7.761-14.524l2.816-14.28A7.311,7.311,0,0,0,247.192,31.372Z" transform="translate(-187.927)" fill="#0095a9"/>
    </g>
  </g>
  <g id="Grupo_287" data-name="Grupo 287" transform="translate(42.711 57.753)">
    <g id="Grupo_286" data-name="Grupo 286">
      <path id="Trazado_453" data-name="Trazado 453" d="M241.3,309a1.869,1.869,0,0,0-1.869,1.869v5.482a22.814,22.814,0,0,1-6.75,16.264l-3.542,3.531a1.869,1.869,0,0,0-.549,1.323v7.6a1.869,1.869,0,0,0,3.738,0v-6.827l2.992-2.984a26.526,26.526,0,0,0,7.849-18.91v-5.482A1.869,1.869,0,0,0,241.3,309Z" transform="translate(-228.588 -309)" fill="#0095a9"/>
    </g>
  </g>
  <g id="Grupo_289" data-name="Grupo 289" transform="translate(53.553 51.118)">
    <g id="Grupo_288" data-name="Grupo 288">
      <path id="Trazado_454" data-name="Trazado 454" d="M289.783,274.048a1.868,1.868,0,1,0,.548,1.321A1.883,1.883,0,0,0,289.783,274.048Z" transform="translate(-286.593 -273.5)" fill="#0095a9"/>
    </g>
  </g>
  <g id="Grupo_291" data-name="Grupo 291" transform="translate(0 19.916)">
    <g id="Grupo_290" data-name="Grupo 290" transform="translate(0)">
      <path id="Trazado_455" data-name="Trazado 455" d="M50.419,116.639a6.892,6.892,0,0,0-3.234.8,6.934,6.934,0,0,0-10.192-5.258,6.937,6.937,0,0,0-13.624,0,6.936,6.936,0,0,0-10.245,6.1v18.186a7.073,7.073,0,0,0-7.23-3.253A7.05,7.05,0,0,0,.2,141.52l2.654,13.459A26.614,26.614,0,0,0,10.2,168.722l4.93,4.916v6.827a1.869,1.869,0,0,0,3.738,0v-7.6a1.869,1.869,0,0,0-.549-1.323l-5.479-5.464a22.888,22.888,0,0,1-6.316-11.82L3.87,140.8a3.311,3.311,0,0,1,6.465-1.429l1.371,5.593a2.616,2.616,0,0,0,5.156-.623V118.28a3.2,3.2,0,0,1,6.381-.335v13.7a1.869,1.869,0,0,0,1.869,1.869h.018A1.869,1.869,0,0,0,27,131.642V118.28c0-.159-.007-.316-.018-.472v-4.315a3.2,3.2,0,0,1,6.4,0v4.315c-.011.156-.018.313-.018.472v13.362a1.869,1.869,0,0,0,1.869,1.869h.018a1.869,1.869,0,0,0,1.869-1.869v-13.7a3.2,3.2,0,0,1,6.381.335l-.018,13.362a1.869,1.869,0,0,0,1.869,1.869h.018a1.869,1.869,0,0,0,1.869-1.869v-8.4a3.2,3.2,0,0,1,6.381.335v8.73a1.869,1.869,0,1,0,3.738,0v-8.73A6.945,6.945,0,0,0,50.419,116.639Z" transform="translate(-0.067 -106.556)" fill="#0095a9"/>
    </g>
  </g>
  <g id="Grupo_293" data-name="Grupo 293" transform="translate(14.767 0.005)">
    <g id="Grupo_292" data-name="Grupo 292">
      <path id="Trazado_456" data-name="Trazado 456" d="M92.122,10.429,82.267.574a1.869,1.869,0,0,0-2.643,2.643l9.855,9.855a1.869,1.869,0,1,0,2.643-2.643Z" transform="translate(-79.076 -0.026)" fill="#0095a9"/>
    </g>
  </g>
  <g id="Grupo_295" data-name="Grupo 295" transform="translate(14.772 15.416)">
    <g id="Grupo_294" data-name="Grupo 294">
      <path id="Trazado_457" data-name="Trazado 457" d="M85.531,82.481H80.97a1.869,1.869,0,0,0,0,3.738h4.561a1.869,1.869,0,0,0,0-3.738Z" transform="translate(-79.101 -82.481)" fill="#0095a9"/>
    </g>
  </g>
  <g id="Grupo_297" data-name="Grupo 297" transform="translate(30.093)">
    <g id="Grupo_296" data-name="Grupo 296">
      <path id="Trazado_458" data-name="Trazado 458" d="M162.943,0a1.869,1.869,0,0,0-1.869,1.869V6.582a1.869,1.869,0,1,0,3.738,0V1.869A1.869,1.869,0,0,0,162.943,0Z" transform="translate(-161.074)" fill="#0095a9"/>
    </g>
  </g>
</svg>
