<svg xmlns="http://www.w3.org/2000/svg" width="176" height="176" viewBox="0 0 176 176">
  <g id="stethoscope" transform="translate(0)">
    <path id="Trazado_478" data-name="Trazado 478" d="M150.219,62.562a25.783,25.783,0,0,0-5.156,51.044v14.7a37.425,37.425,0,0,1-37.383,37.383,40.179,40.179,0,0,1-40.3-39.961V114.447a15.372,15.372,0,0,0,7.937-6.351L92.756,80.808c.044-.07.081-.142.122-.214a47.529,47.529,0,0,0,31.559-44.5,25.826,25.826,0,0,0-20.625-25.263V5.156a5.156,5.156,0,0,0-10.312,0V25.781a5.156,5.156,0,0,0,10.312,0v-4.27a15.5,15.5,0,0,1,10.312,14.582c0,19.937-16.687,36.781-36.437,36.781H46.406c-20.555,0-36.723-17.726-36.075-37.97A14.952,14.952,0,0,1,20.625,21.487v4.294a5.156,5.156,0,0,0,10.312,0V5.156a5.156,5.156,0,1,0-10.312,0v5.676C9.235,13.139.4,22.908.024,34.575A47.458,47.458,0,0,0,31.639,80.733c.015.026.027.051.043.075L49.124,108.1a15.389,15.389,0,0,0,7.938,6.353v11.278A50.5,50.5,0,0,0,107.68,176a47.749,47.749,0,0,0,47.7-47.7v-14.7a25.783,25.783,0,0,0-5.156-51.044ZM45.433,83.175c.324.007.649.012.974.012H77.688c.442,0,.881-.008,1.321-.02l-12.4,19.392-.024.039a5.156,5.156,0,0,1-8.739,0l-.024-.039Zm104.786,20.637a15.469,15.469,0,1,1,15.469-15.469A15.486,15.486,0,0,1,150.219,103.812Zm0,0" fill="#0095a9"/>
    <path id="Trazado_479" data-name="Trazado 479" d="M417.313,227a10.312,10.312,0,1,0,10.313,10.312A10.324,10.324,0,0,0,417.313,227Zm0,0" transform="translate(-267.094 -148.969)" fill="#00a968"/>
  </g>
</svg>
