<svg xmlns="http://www.w3.org/2000/svg" width="45.033" height="41.099" viewBox="0 0 45.033 41.099">
  <g id="old-couple" transform="translate(0 -19.63)">
    <path id="Trazado_575" data-name="Trazado 575" d="M264.5,27.971a4.17,4.17,0,1,0-4.17-4.17A4.17,4.17,0,0,0,264.5,27.971Z" transform="translate(-234.237)" fill="#0095a9"/>
    <path id="Trazado_576" data-name="Trazado 576" d="M73.875,27.971a4.17,4.17,0,1,0-4.17-4.17A4.17,4.17,0,0,0,73.875,27.971Z" transform="translate(-62.72)" fill="#0095a9"/>
    <path id="Trazado_577" data-name="Trazado 577" d="M43.177,110.622a1.6,1.6,0,0,0-.561-1.608l-3.776-3.019L35.347,97.5a1.6,1.6,0,0,0-1.181-.963,5.265,5.265,0,0,1-7.813,0,1.6,1.6,0,0,0-1.181.963l-4.464,10.851L16.243,97.5a1.6,1.6,0,0,0-1.181-.963,5.265,5.265,0,0,1-7.813,0,1.6,1.6,0,0,0-1.181.963L.121,111.957a1.6,1.6,0,1,0,2.966,1.22L6.1,105.853v2.029l-2.991,9.345a2.436,2.436,0,0,0,2.32,3.178H6.1v7.415a2.11,2.11,0,0,0,2.187,2.109,2.143,2.143,0,0,0,2.033-2.159V120.4h1.671v7.415a2.11,2.11,0,0,0,2.187,2.109,2.143,2.143,0,0,0,2.033-2.159V120.4h.672a2.436,2.436,0,0,0,2.32-3.178l-2.991-9.345v-2.029l2.411,5.862a2.255,2.255,0,0,0,2.086,1.4h0a2.255,2.255,0,0,0,2.086-1.4l2.409-5.861V127.82a2.11,2.11,0,0,0,2.187,2.109,2.143,2.143,0,0,0,2.033-2.159V116.382a.854.854,0,0,1,.78-.862.835.835,0,0,1,.891.834V127.82a2.11,2.11,0,0,0,2.187,2.109,2.143,2.143,0,0,0,2.033-2.159V105.853l.718,1.746a1.6,1.6,0,0,0,.482.642l3.814,3.049a2.741,2.741,0,0,0-.795,1.931V129.1a.766.766,0,0,0,.722.776.746.746,0,0,0,.768-.745v-15.87a1.283,1.283,0,0,1,1.137-1.29,1.26,1.26,0,0,1,1.38,1.253v1.874a.766.766,0,0,0,.722.776.745.745,0,0,0,.768-.745v-1.9A2.753,2.753,0,0,0,43.177,110.622Z" transform="translate(0 -69.201)" fill="#0095a9"/>
  </g>
</svg>
