<svg xmlns="http://www.w3.org/2000/svg" width="67.035" height="63.199" viewBox="0 0 67.035 63.199">
  <g id="piggy-bank" transform="translate(0 -13.951)">
    <path id="Trazado_390" data-name="Trazado 390" d="M62.1,36.539h-.976a27.553,27.553,0,0,0-7.974-11.012,7.24,7.24,0,0,1,1.182-5.9,3.669,3.669,0,0,0,.11-3.767,3.707,3.707,0,0,0-3.231-1.911c-.151,0-.316.014-.467.027a14.93,14.93,0,0,0-9.9,4.99,27.666,27.666,0,0,0-5.513-.935,37.215,37.215,0,0,0-3.918-.22,33.53,33.53,0,0,0-22.12,8.029A26,26,0,0,0,0,45.53a24.474,24.474,0,0,0,.674,5.733c.014.041.014.082.027.11l.014.069a26.292,26.292,0,0,0,2.062,5.527A29.147,29.147,0,0,0,8.07,64.955,12.516,12.516,0,0,1,11.4,72.9v.811a2.135,2.135,0,0,0,.041.426A3.548,3.548,0,0,0,14.93,77.15H25.172a3.532,3.532,0,0,0,3.533-3.533v-.467a36.106,36.106,0,0,0,4.4.055v.412a3.532,3.532,0,0,0,3.533,3.533H46.88a3.532,3.532,0,0,0,3.533-3.533v-2.5a8.268,8.268,0,0,1,2.832-5.678c.124-.11.261-.22.385-.33l.027-.027a.321.321,0,0,0,.1-.1A27.365,27.365,0,0,0,61.26,54.095h.811a4.97,4.97,0,0,0,4.963-4.963V41.474A4.914,4.914,0,0,0,62.1,36.539ZM51.211,17.649h0l-.014-.014v.014h0l-.234-1.842Zm12.139,31.5A1.256,1.256,0,0,1,62.1,50.4H59.954A1.861,1.861,0,0,0,58.181,51.7a23.488,23.488,0,0,1-6.929,10.572l-.027.027-.014.014-.371.33-.041.041a11.954,11.954,0,0,0-4.069,8.372v2.392h-9.9V71.211a1.863,1.863,0,0,0-2.048-1.842,30.9,30.9,0,0,1-3.368.179,32.014,32.014,0,0,1-4.3-.289,1.85,1.85,0,0,0-2.1,1.842v2.351H15.123v-.674a16.262,16.262,0,0,0-4.372-10.407,25.131,25.131,0,0,1-4.606-7c-.014-.027-.027-.041-.027-.069a21.644,21.644,0,0,1-1.787-4.757c0-.014-.014-.027-.014-.041v-.027a21.438,21.438,0,0,1-.591-4.935c0-13.239,12.428-24,27.7-24a33.862,33.862,0,0,1,3.547.192.174.174,0,0,1,.082.014A18.1,18.1,0,0,1,40.6,22.86a1.862,1.862,0,0,0,2.42-.591c1.2-1.773,3.588-4.014,8.18-4.578A10.966,10.966,0,0,0,49.6,26.613,1.89,1.89,0,0,0,50.289,28a23.76,23.76,0,0,1,7.781,11,1.862,1.862,0,0,0,1.76,1.279h2.282a1.256,1.256,0,0,1,1.251,1.251v7.616H63.35Z" transform="translate(0 0)" fill="#0095a9"/>
  </g>
</svg>
