<svg id="review" xmlns="http://www.w3.org/2000/svg" width="72.186" height="80.959" viewBox="0 0 72.186 80.959">
  <path id="Trazado_418" data-name="Trazado 418" d="M181.891,24.1h14.142V38.239H181.891Zm0,0" transform="translate(-153.13 -20.287)" fill="#76ffd9"/>
  <path id="Trazado_419" data-name="Trazado 419" d="M181.891,211.281h14.142v14.142H181.891Zm0,0" transform="translate(-153.13 -177.873)" fill="#fff"/>
  <path id="Trazado_420" data-name="Trazado 420" d="M181.891,403.516h14.142v14.142H181.891Zm0,0" transform="translate(-153.13 -339.711)" fill="#fff"/>
  <path id="Trazado_421" data-name="Trazado 421" d="M28.922,204.379a9.7,9.7,0,1,1-9.7-9.7A9.7,9.7,0,0,1,28.922,204.379Zm0,0" transform="translate(-8.024 -163.9)" fill="#ffc843"/>
  <path id="Trazado_422" data-name="Trazado 422" d="M26.89,17.2A9.7,9.7,0,1,1,17.2,7.5,9.695,9.695,0,0,1,26.89,17.2Zm0,0" transform="translate(-6.314 -6.314)" fill="#76ffd9"/>
  <path id="Trazado_423" data-name="Trazado 423" d="M28.922,391.566a9.7,9.7,0,1,1-9.7-9.695A9.7,9.7,0,0,1,28.922,391.566Zm0,0" transform="translate(-8.024 -321.489)" fill="#d8e0ea"/>
  <g id="Grupo_281" data-name="Grupo 281">
    <path id="Trazado_424" data-name="Trazado 424" d="M189.719,203.781H175.577a1.186,1.186,0,0,0-1.186,1.186v14.142a1.186,1.186,0,0,0,1.186,1.186h14.142a1.185,1.185,0,0,0,1.186-1.186V204.967A1.186,1.186,0,0,0,189.719,203.781Zm-1.186,14.142h-11.77v-11.77h11.77Zm0,0" transform="translate(-146.815 -171.559)" fill="#434c54"/>
    <path id="Trazado_425" data-name="Trazado 425" d="M189.719,396.016H175.577a1.186,1.186,0,0,0-1.186,1.186v5.321a1.186,1.186,0,0,0,2.372,0v-4.135h11.77v11.77h-11.77v-2.839a1.186,1.186,0,0,0-2.372,0v4.025a1.186,1.186,0,0,0,1.186,1.186h14.142a1.185,1.185,0,0,0,1.186-1.186V397.2A1.185,1.185,0,0,0,189.719,396.016Zm0,0" transform="translate(-146.815 -333.397)" fill="#434c54"/>
    <path id="Trazado_426" data-name="Trazado 426" d="M191.026,18.241l-.122.122v-.579a1.185,1.185,0,0,0-1.186-1.186H175.577a1.186,1.186,0,0,0-1.186,1.186V31.926a1.186,1.186,0,0,0,1.186,1.186h2.983a1.186,1.186,0,0,0,0-2.372h-1.8V18.969h11.77v1.765l-4.647,4.647L182,23.49a1.186,1.186,0,0,0-1.677,1.678l2.729,2.729a1.186,1.186,0,0,0,1.677,0l3.808-3.808V30.74h-5.177a1.186,1.186,0,0,0,0,2.372h6.363a1.186,1.186,0,0,0,1.186-1.186V21.717l1.8-1.8a1.186,1.186,0,0,0-1.677-1.677Zm0,0" transform="translate(-146.815 -13.973)" fill="#434c54"/>
    <path id="Trazado_427" data-name="Trazado 427" d="M45.291,273.281a1.186,1.186,0,0,0,1.334,1.962,3.964,3.964,0,0,1,4.54,0,1.186,1.186,0,0,0,1.334-1.962A6.376,6.376,0,0,0,45.291,273.281Zm0,0" transform="translate(-37.692 -229.13)" fill="#434c54"/>
    <path id="Trazado_428" data-name="Trazado 428" d="M15.318,188.74a1.186,1.186,0,1,0-.523,2.313,8.508,8.508,0,1,1-4.211.112,1.186,1.186,0,0,0-.647-2.282,10.882,10.882,0,1,0,5.381-.143Zm0,0" transform="translate(-1.707 -158.871)" fill="#434c54"/>
    <path id="Trazado_429" data-name="Trazado 429" d="M45.959,239.873a1.186,1.186,0,0,0,1.186-1.186v-.3a1.186,1.186,0,0,0-2.372,0v.3A1.186,1.186,0,0,0,45.959,239.873Zm0,0" transform="translate(-37.694 -199.696)" fill="#434c54"/>
    <path id="Trazado_430" data-name="Trazado 430" d="M84.11,238.687v-.3a1.186,1.186,0,0,0-2.372,0v.3a1.186,1.186,0,0,0,2.372,0Zm0,0" transform="translate(-68.814 -199.696)" fill="#434c54"/>
    <path id="Trazado_431" data-name="Trazado 431" d="M43.261,87.112a6.374,6.374,0,0,0,7.206,0,1.186,1.186,0,1,0-1.333-1.962,3.965,3.965,0,0,1-4.54,0,1.186,1.186,0,1,0-1.334,1.962Zm0,0" transform="translate(-35.983 -71.513)" fill="#434c54"/>
    <path id="Trazado_432" data-name="Trazado 432" d="M10.881,21.763A10.881,10.881,0,1,0,0,10.881,10.893,10.893,0,0,0,10.881,21.763Zm0-19.391a8.509,8.509,0,1,1-8.51,8.51A8.519,8.519,0,0,1,10.881,2.372Zm0,0" fill="#434c54"/>
    <path id="Trazado_433" data-name="Trazado 433" d="M43.928,52.69A1.186,1.186,0,0,0,45.114,51.5v-.3a1.186,1.186,0,1,0-2.372,0v.3A1.186,1.186,0,0,0,43.928,52.69Zm0,0" transform="translate(-35.984 -42.11)" fill="#434c54"/>
    <path id="Trazado_434" data-name="Trazado 434" d="M80.9,52.69A1.186,1.186,0,0,0,82.083,51.5v-.3a1.186,1.186,0,1,0-2.372,0v.3A1.186,1.186,0,0,0,80.9,52.69Zm0,0" transform="translate(-67.107 -42.11)" fill="#434c54"/>
    <path id="Trazado_435" data-name="Trazado 435" d="M12.912,374.367a10.881,10.881,0,1,0,10.881,10.881A10.893,10.893,0,0,0,12.912,374.367Zm0,19.391a8.509,8.509,0,1,1,8.51-8.51A8.519,8.519,0,0,1,12.912,393.758Zm0,0" transform="translate(-1.71 -315.171)" fill="#434c54"/>
    <path id="Trazado_436" data-name="Trazado 436" d="M45.959,427.06a1.186,1.186,0,0,0,1.186-1.186v-.3a1.186,1.186,0,0,0-2.372,0v.3A1.186,1.186,0,0,0,45.959,427.06Zm0,0" transform="translate(-37.694 -357.285)" fill="#434c54"/>
    <path id="Trazado_437" data-name="Trazado 437" d="M82.924,424.391a1.186,1.186,0,0,0-1.186,1.186v.3a1.186,1.186,0,0,0,2.372,0v-.3A1.185,1.185,0,0,0,82.924,424.391Zm0,0" transform="translate(-68.814 -357.285)" fill="#434c54"/>
    <path id="Trazado_438" data-name="Trazado 438" d="M51.8,461.828H45.959a1.186,1.186,0,1,0,0,2.372H51.8a1.186,1.186,0,1,0,0-2.372Zm0,0" transform="translate(-37.694 -388.803)" fill="#434c54"/>
    <path id="Trazado_439" data-name="Trazado 439" d="M335.131,24.657h4.3a1.186,1.186,0,0,0,0-2.372h-4.3a1.186,1.186,0,0,0,0,2.372Zm0,0" transform="translate(-281.141 -18.761)" fill="#434c54"/>
    <path id="Trazado_440" data-name="Trazado 440" d="M335.131,57.563h17.009a1.186,1.186,0,0,0,0-2.372H335.131a1.186,1.186,0,0,0,0,2.372Zm0,0" transform="translate(-281.141 -46.464)" fill="#434c54"/>
    <path id="Trazado_441" data-name="Trazado 441" d="M352.141,77.77H335.131a1.186,1.186,0,0,0,0,2.372h17.009a1.186,1.186,0,0,0,0-2.372Zm0,0" transform="translate(-281.141 -65.472)" fill="#434c54"/>
    <path id="Trazado_442" data-name="Trazado 442" d="M352.141,100.344H335.131a1.186,1.186,0,0,0,0,2.372h17.009a1.186,1.186,0,0,0,0-2.372Zm0,0" transform="translate(-281.141 -84.477)" fill="#434c54"/>
    <path id="Trazado_443" data-name="Trazado 443" d="M335.131,211.844h4.3a1.186,1.186,0,0,0,0-2.372h-4.3a1.186,1.186,0,0,0,0,2.372Zm0,0" transform="translate(-281.141 -176.35)" fill="#434c54"/>
    <path id="Trazado_444" data-name="Trazado 444" d="M352.141,242.375H335.131a1.186,1.186,0,0,0,0,2.372h17.009a1.186,1.186,0,0,0,0-2.372Zm0,0" transform="translate(-281.141 -204.05)" fill="#434c54"/>
    <path id="Trazado_445" data-name="Trazado 445" d="M352.141,264.953H335.131a1.186,1.186,0,0,0,0,2.372h17.009a1.186,1.186,0,0,0,0-2.372Zm0,0" transform="translate(-281.141 -223.058)" fill="#434c54"/>
    <path id="Trazado_446" data-name="Trazado 446" d="M352.141,287.527H335.131a1.186,1.186,0,0,0,0,2.372h17.009a1.186,1.186,0,0,0,0-2.372Zm0,0" transform="translate(-281.141 -242.063)" fill="#434c54"/>
    <path id="Trazado_447" data-name="Trazado 447" d="M335.131,404.075h4.3a1.186,1.186,0,0,0,0-2.372h-4.3a1.186,1.186,0,0,0,0,2.372Zm0,0" transform="translate(-281.141 -338.185)" fill="#434c54"/>
    <path id="Trazado_448" data-name="Trazado 448" d="M352.141,434.609H335.131a1.186,1.186,0,0,0,0,2.372h17.009a1.186,1.186,0,0,0,0-2.372Zm0,0" transform="translate(-281.141 -365.888)" fill="#434c54"/>
    <path id="Trazado_449" data-name="Trazado 449" d="M352.141,457.188H335.131a1.186,1.186,0,0,0,0,2.372h17.009a1.186,1.186,0,0,0,0-2.372Zm0,0" transform="translate(-281.141 -384.896)" fill="#434c54"/>
    <path id="Trazado_450" data-name="Trazado 450" d="M352.141,479.762H335.131a1.186,1.186,0,0,0,0,2.372h17.009a1.186,1.186,0,1,0,0-2.372Zm0,0" transform="translate(-281.141 -403.9)" fill="#434c54"/>
  </g>
</svg>
