<svg xmlns="http://www.w3.org/2000/svg" width="33.043" height="29.739" viewBox="0 0 33.043 29.739">
  <path id="suitcase" d="M31.391,4.956H24.231v-2.2A2.757,2.757,0,0,0,21.478,0H11.565A2.757,2.757,0,0,0,8.811,2.754v2.2H1.652A1.652,1.652,0,0,0,0,6.609V18.867a1.659,1.659,0,0,0,1.1,1.555v7.664a1.652,1.652,0,0,0,1.652,1.652H30.289a1.652,1.652,0,0,0,1.652-1.652V20.423a1.66,1.66,0,0,0,1.1-1.555V6.609A1.652,1.652,0,0,0,31.391,4.956ZM9.913,2.754A1.652,1.652,0,0,1,11.565,1.1h9.913A1.652,1.652,0,0,1,23.13,2.754v2.2h-1.1v-2.2a.551.551,0,0,0-.551-.551H11.565a.551.551,0,0,0-.551.551v2.2h-1.1Zm11.014,2.2H12.116V3.3h8.811Zm9.913,23.13a.551.551,0,0,1-.551.551H2.754a.551.551,0,0,1-.551-.551V20.611l12.116,1.671v1.4a1.652,1.652,0,0,0,1.652,1.652h1.1a1.652,1.652,0,0,0,1.652-1.652v-1.4L30.84,20.611ZM17.623,23.681a.551.551,0,0,1-.551.551h-1.1a.551.551,0,0,1-.551-.551v-3.3a.551.551,0,0,1,.551-.551h1.1a.551.551,0,0,1,.551.551Zm14.319-4.813a.551.551,0,0,1-.474.546l-.153.021L18.724,21.171v-.794a1.652,1.652,0,0,0-1.652-1.652h-1.1a1.652,1.652,0,0,0-1.652,1.652v.794L1.576,19.413a.551.551,0,0,1-.474-.546V6.609a.551.551,0,0,1,.551-.551H31.391a.551.551,0,0,1,.551.551Zm0,0" fill="#0095a9"/>
</svg>
