<svg id="sun-umbrella" xmlns="http://www.w3.org/2000/svg" width="37.458" height="37.41" viewBox="0 0 37.458 37.41">
  <g id="Grupo_303" data-name="Grupo 303" transform="translate(0 10.343)">
    <g id="Grupo_302" data-name="Grupo 302" transform="translate(0 0)">
      <path id="Trazado_461" data-name="Trazado 461" d="M13.379,151.184l2.715-1.429-2.715-1.429,1.637-2.595-3.065.12.12-3.065-2.595,1.637-1.429-2.715-1.429,2.715-2.595-1.637.12,3.065-3.065-.12,1.637,2.595L0,149.756l2.715,1.429-1.637,2.595,3.065-.12-.12,3.065,2.595-1.637L8.047,157.8l1.429-2.715,2.595,1.637-.12-3.065,3.065.12Zm-5.332,2.595a4.023,4.023,0,1,1,4.023-4.023A4.023,4.023,0,0,1,8.047,153.779Z" transform="translate(0 -141.709)" fill="#0095a9"/>
    </g>
  </g>
  <g id="Grupo_305" data-name="Grupo 305" transform="translate(0 33.021)">
    <g id="Grupo_304" data-name="Grupo 304">
      <path id="Trazado_462" data-name="Trazado 462" d="M33.7,452.977a3.9,3.9,0,0,1-4.98,0,6.077,6.077,0,0,0-7.5,0,3.9,3.9,0,0,1-4.98,0,5.864,5.864,0,0,0-3.752-1.3,5.864,5.864,0,0,0-3.752,1.3,3.693,3.693,0,0,1-2.49.9,3.693,3.693,0,0,1-2.49-.9A5.863,5.863,0,0,0,0,451.68v2.195a3.693,3.693,0,0,1,2.49.9,5.864,5.864,0,0,0,3.752,1.3,5.864,5.864,0,0,0,3.752-1.3,3.693,3.693,0,0,1,2.49-.9,3.693,3.693,0,0,1,2.49.9,6.076,6.076,0,0,0,7.5,0,3.9,3.9,0,0,1,4.98,0,6.077,6.077,0,0,0,7.5,0,3.694,3.694,0,0,1,2.49-.9V451.68A5.863,5.863,0,0,0,33.7,452.977Z" transform="translate(0 -451.68)" fill="#0095a9"/>
    </g>
  </g>
  <g id="Grupo_307" data-name="Grupo 307" transform="translate(3.104 0)">
    <g id="Grupo_306" data-name="Grupo 306" transform="translate(0 0)">
      <path id="Trazado_463" data-name="Trazado 463" d="M75.645,8.318a11.979,11.979,0,0,0-5.8-5.819l.517-1.421L68.3.327l-.518,1.422A12.086,12.086,0,0,0,53.364,9.291l-.443,1.217,1.273.237a18.885,18.885,0,0,1,5.848,2.128l.256.145.294,0H60.7a11.4,11.4,0,0,1,2.85.363L58.44,27.426c-.129,0-.259,0-.388,0a30.2,30.2,0,0,0-15.623,4.325,9.632,9.632,0,0,1,1.91,1.1c.642.451.709.5,1.228.5s.586-.047,1.228-.5a8.26,8.26,0,0,1,10.029,0c.642.451.709.5,1.228.5s.586-.047,1.228-.5a8.261,8.261,0,0,1,10.029,0c.642.451.709.5,1.228.5s.586-.047,1.228-.5a9.634,9.634,0,0,1,1.911-1.1A30.139,30.139,0,0,0,60.734,27.54l4.882-13.412a11.4,11.4,0,0,1,2.5,1.626l.224.191L68.63,16a18.886,18.886,0,0,1,5.848,2.128l1.128.637.443-1.217A11.991,11.991,0,0,0,75.645,8.318Z" transform="translate(-42.429 -0.327)" fill="#0095a9"/>
    </g>
  </g>
</svg>
