<svg xmlns="http://www.w3.org/2000/svg" width="95.502" height="38.204" viewBox="0 0 95.502 38.204">
  <g id="surface1" transform="translate(0 -0.492)">
    <path id="Trazado_416" data-name="Trazado 416" d="M240,86.891h6.367v3.184H240Zm0,0" transform="translate(-200.208 -72.074)" fill="#0095a9"/>
    <path id="Trazado_417" data-name="Trazado 417" d="M94.136,10.058,83.324,8.514A54.553,54.553,0,0,0,77.2,5.267,53.6,53.6,0,0,0,55.022.492H53.143A54.1,54.1,0,0,0,27.309,7.08l-5.457,2.977a37.609,37.609,0,0,0-18.2,4.934A7.266,7.266,0,0,0,0,21.283v9.451a1.592,1.592,0,0,0,1.592,1.592H6.936a9.515,9.515,0,0,0,17.959,0H67.421a9.515,9.515,0,0,0,17.959,0h.571a1.6,1.6,0,0,0,.592-.113L91.7,30.144a6.019,6.019,0,0,0,3.8-5.617V11.634A1.593,1.593,0,0,0,94.136,10.058ZM22.155,30.416a6.367,6.367,0,1,1,.129-1.273A6.367,6.367,0,0,1,22.155,30.416Zm28.78-1.273H25.467a9.55,9.55,0,1,0-19.1,0H3.183v-7.86a4.071,4.071,0,0,1,2.049-3.528,34.413,34.413,0,0,1,17.052-4.528H50.934Zm0-19.1H28.526l.307-.168a50.894,50.894,0,0,1,22.1-6.129Zm3.183-6.367h.9A50.377,50.377,0,0,1,73.747,7.263l-2.779,2.779H54.117ZM82.639,30.416a6.367,6.367,0,1,1,.129-1.273A6.367,6.367,0,0,1,82.639,30.416Zm9.679-15.6H87.543V18h4.775v6.526a2.849,2.849,0,0,1-1.8,2.659L85.951,29.02c0-.146-.019-.291-.028-.438s-.013-.318-.029-.477-.048-.319-.073-.477-.045-.319-.076-.463-.078-.306-.12-.457-.073-.3-.121-.452-.1-.29-.159-.435-.1-.294-.159-.438-.131-.273-.2-.409-.132-.284-.207-.42-.159-.253-.231-.38-.159-.273-.249-.4-.176-.234-.263-.352-.187-.256-.288-.379-.2-.218-.3-.319-.209-.235-.318-.347-.218-.2-.328-.3-.228-.215-.349-.319-.244-.183-.364-.273-.242-.188-.369-.273-.271-.159-.407-.248-.249-.159-.378-.227-.29-.141-.436-.21-.261-.132-.4-.189-.319-.118-.477-.175-.263-.1-.4-.145c-.181-.056-.367-.1-.552-.142-.121-.028-.237-.067-.359-.092-.2-.04-.4-.062-.6-.091-.118-.016-.231-.041-.348-.052a9.7,9.7,0,0,0-.971-.049,9.56,9.56,0,0,0-9.55,9.55H54.118V13.225H71.626a1.589,1.589,0,0,0,1.125-.466l4.128-4.128a51.042,51.042,0,0,1,5.046,2.76,1.6,1.6,0,0,0,.617.226l9.776,1.4Zm0,0" transform="translate(0 0)" fill="#0095a9"/>
  </g>
</svg>
