<svg xmlns="http://www.w3.org/2000/svg" width="52.848" height="68.932" viewBox="0 0 52.848 68.932">
  <g id="tax" transform="translate(-0.5 0.001)">
    <path id="Trazado_410" data-name="Trazado 410" d="M35.466,19.23a3.428,3.428,0,0,0,.443-.867,3.352,3.352,0,0,1,1.321.528,5.055,5.055,0,0,0,2.7.864,5.237,5.237,0,0,0,.908-.083,4.825,4.825,0,0,0,3.126-1.968,2.629,2.629,0,0,1,3.826-.674,4.825,4.825,0,0,0,3.611.78L51,15.548a2.628,2.628,0,0,1-2.061-.507A4.89,4.89,0,0,0,42.2,16.229a2.631,2.631,0,0,1-1.765,1.181,2.276,2.276,0,0,1-1-.024,4.568,4.568,0,0,0,1.838-.976A4.826,4.826,0,0,0,43,13.143a2.626,2.626,0,0,1,.939-1.9,2.588,2.588,0,0,1,2.038-.593,4.725,4.725,0,0,0,3.517-1.13l-1.48-1.759a2.744,2.744,0,0,1-2.039.592,4.891,4.891,0,0,0-5.24,4.4,2.628,2.628,0,0,1-2.973,2.5,5.106,5.106,0,0,0-2.115.283,3.447,3.447,0,0,0-1.334-1.3L39.447,3.959A1.149,1.149,0,0,0,38.413,2.3a2.965,2.965,0,0,1-2.151-.9,5.3,5.3,0,0,0-7.178,0,3.035,3.035,0,0,1-2.155.9,3.034,3.034,0,0,1-2.155-.9,5.3,5.3,0,0,0-7.183,0,2.975,2.975,0,0,1-2.156.9,1.149,1.149,0,0,0-1.028,1.663L19.538,14.22a3.409,3.409,0,0,0-1.156,5.01A24.146,24.146,0,0,0,.5,42.507v20.68a5.751,5.751,0,0,0,5.744,5.744H47.6a5.752,5.752,0,0,0,5.744-5.744V42.507A24.147,24.147,0,0,0,35.466,19.23ZM19.027,3.194a3.039,3.039,0,0,1,4.313,0,5.3,5.3,0,0,0,7.18,0,3.031,3.031,0,0,1,4.306,0,6.1,6.1,0,0,0,1.865,1.127l-4.732,9.464H21.889L17.159,4.322A6.137,6.137,0,0,0,19.027,3.194ZM21.18,18.381a1.149,1.149,0,1,1,0-2.3H32.669a1.149,1.149,0,1,1,0,2.3ZM51.051,63.187A3.447,3.447,0,0,1,47.6,66.633H6.244A3.446,3.446,0,0,1,2.8,63.187V42.507A21.852,21.852,0,0,1,24.626,20.678h4.6A21.853,21.853,0,0,1,51.051,42.507Zm0,0" fill="#0095a9"/>
    <path id="Trazado_411" data-name="Trazado 411" d="M130.84,272.122l13.787-13.786,1.625,1.625-13.786,13.787Zm0,0" transform="translate(-111.622 -221.237)" fill="#0095a9"/>
    <path id="Trazado_412" data-name="Trazado 412" d="M195.947,320a3.447,3.447,0,1,0,3.447,3.447A3.446,3.446,0,0,0,195.947,320Zm0,4.6a1.149,1.149,0,1,1,1.149-1.149A1.149,1.149,0,0,1,195.947,324.592Zm0,0" transform="translate(-164.427 -274.042)" fill="#0095a9"/>
    <path id="Trazado_413" data-name="Trazado 413" d="M131.947,262.889a3.447,3.447,0,1,0-3.447-3.447A3.447,3.447,0,0,0,131.947,262.889Zm0-4.6a1.149,1.149,0,1,1-1.149,1.149A1.149,1.149,0,0,1,131.947,258.294Zm0,0" transform="translate(-109.618 -219.233)" fill="#0095a9"/>
    <path id="Trazado_414" data-name="Trazado 414" d="M88.584,200a16.084,16.084,0,1,0,16.084,16.084A16.084,16.084,0,0,0,88.584,200Zm0,29.871a13.787,13.787,0,1,1,13.787-13.787A13.786,13.786,0,0,1,88.584,229.867Zm0,0" transform="translate(-61.66 -171.276)" fill="#0095a9"/>
  </g>
</svg>
