<svg xmlns="http://www.w3.org/2000/svg" width="63.602" height="59.916" viewBox="0 0 63.602 59.916">
  <g id="transfer" transform="translate(0 -14.2)">
    <g id="Grupo_353" data-name="Grupo 353" transform="translate(0 14.2)">
      <path id="Trazado_482" data-name="Trazado 482" d="M50.08,14.2H13.535A6.635,6.635,0,0,0,6.9,20.831v30.25L2.712,46.89A1.588,1.588,0,0,0,.467,49.135l6.917,6.917a1.6,1.6,0,0,0,2.258,0l6.917-6.917a1.588,1.588,0,0,0-2.245-2.245l-4.2,4.2V20.831a3.45,3.45,0,0,1,3.452-3.452H50.093a3.45,3.45,0,0,1,3.452,3.452v4.412a1.6,1.6,0,1,0,3.192,0V20.831A6.7,6.7,0,0,0,50.08,14.2Z" transform="translate(0 -14.2)" fill="#0095a9"/>
      <path id="Trazado_483" data-name="Trazado 483" d="M100.195,150.5l-6.917,6.917a1.592,1.592,0,0,0,2.258,2.245l4.2-4.2v30.25a3.45,3.45,0,0,1-3.452,3.452H59.744a3.45,3.45,0,0,1-3.452-3.452v-4.412a1.6,1.6,0,1,0-3.192,0v4.412a6.635,6.635,0,0,0,6.631,6.631H96.263a6.635,6.635,0,0,0,6.631-6.631v-30.25l4.2,4.2a1.588,1.588,0,1,0,2.245-2.245l-6.917-6.917A1.615,1.615,0,0,0,100.195,150.5Z" transform="translate(-46.209 -132.42)" fill="#0095a9"/>
      <path id="Trazado_484" data-name="Trazado 484" d="M196.019,136.7a1.6,1.6,0,0,0-1.6,1.6v2.44h-.208a5.808,5.808,0,0,0,0,11.6H197.8a2.639,2.639,0,0,1,0,5.243H191.36a1.6,1.6,0,0,0,0,3.192h3.063v2.479a1.6,1.6,0,0,0,3.192,0V160.76h.273a5.811,5.811,0,0,0-.078-11.6h-3.582a2.639,2.639,0,0,1,0-5.243h6.32a1.6,1.6,0,1,0,0-3.192h-2.933v-2.44A1.6,1.6,0,0,0,196.019,136.7Z" transform="translate(-164.212 -120.803)" fill="#0095a9"/>
    </g>
  </g>
</svg>
