<?xml version="1.0" encoding="iso-8859-1"?>
<!-- Uploaded to: SVG Repo, www.svgrepo.com, Generator: SVG Repo Mixer Tools -->
<svg height="800px" width="800px" version="1.1" id="Layer_1" xmlns="http://www.w3.org/2000/svg" xmlns:xlink="http://www.w3.org/1999/xlink" 
	 viewBox="0 0 512 512" xml:space="preserve">
<g transform="translate(1 1)">
	<g>
		<path style="fill:#FFE100;" d="M263.533,135.533c-5.12,0-8.533-3.413-8.533-8.533V75.8c0-5.12,3.413-8.533,8.533-8.533
			c5.12,0,8.533,3.413,8.533,8.533V127C272.067,132.12,268.653,135.533,263.533,135.533z"/>
		<path style="fill:#FFE100;" d="M263.533,442.733c-5.12,0-8.533-3.413-8.533-8.533V383c0-5.12,3.413-8.533,8.533-8.533
			c5.12,0,8.533,3.413,8.533,8.533v51.2C272.067,439.32,268.653,442.733,263.533,442.733z"/>
		<path style="fill:#FFE100;" d="M442.733,263.533h-51.2c-5.12,0-8.533-3.413-8.533-8.533s3.413-8.533,8.533-8.533h51.2
			c5.12,0,8.533,3.413,8.533,8.533S447.853,263.533,442.733,263.533z"/>
		<path style="fill:#FFE100;" d="M135.533,263.533h-51.2c-5.12,0-8.533-3.413-8.533-8.533s3.413-8.533,8.533-8.533h51.2
			c5.12,0,8.533,3.413,8.533,8.533S140.653,263.533,135.533,263.533z"/>
		<path style="fill:#FFE100;" d="M173.08,173.08c-2.56,0-4.267-0.853-5.973-2.56l-35.84-35.84c-3.413-3.413-3.413-8.533,0-11.947
			s8.533-3.413,11.947,0l35.84,35.84c3.413,3.413,3.413,8.533,0,11.947C177.347,172.227,174.787,173.08,173.08,173.08z"/>
		<path style="fill:#FFE100;" d="M389.827,389.827c-2.56,0-4.267-0.853-5.973-2.56l-35.84-35.84c-3.413-3.413-3.413-8.533,0-11.947
			c3.413-3.413,8.533-3.413,11.947,0l35.84,35.84c3.413,3.413,3.413,8.533,0,11.947
			C394.947,389.827,392.387,389.827,389.827,389.827z"/>
		<path style="fill:#FFE100;" d="M353.987,173.08c-2.56,0-4.267-0.853-5.973-2.56c-3.413-3.413-3.413-8.533,0-11.947l35.84-35.84
			c3.413-3.413,8.533-3.413,11.947,0c3.413,3.413,3.413,8.533,0,11.947l-35.84,35.84C358.253,172.227,356.547,173.08,353.987,173.08
			z"/>
		<path style="fill:#FFE100;" d="M137.24,389.827c-2.56,0-4.267-0.853-5.973-2.56c-3.413-3.413-3.413-8.533,0-11.947l35.84-35.84
			c3.413-3.413,8.533-3.413,11.947,0c3.413,3.413,3.413,8.533,0,11.947l-35.84,35.84
			C141.507,389.827,138.947,389.827,137.24,389.827z"/>
		<path style="fill:#FFE100;" d="M383,255c0,70.827-57.173,128-128,128s-128-57.173-128-128s57.173-128,128-128S383,184.173,383,255
			"/>
	</g>
	<path style="fill:#FFA800;" d="M255,127c-4.267,0-8.533,0-12.8,0.853C307.053,133.827,357.4,188.44,357.4,255
		s-50.347,121.173-115.2,127.147c4.267,0,8.533,0.853,12.8,0.853c70.827,0,128-57.173,128-128S325.827,127,255,127"/>
	<g>
		<path style="fill:#FFE100;" d="M289.133,41.667c0,18.773-15.36,34.133-34.133,34.133s-34.133-15.36-34.133-34.133
			S236.227,7.533,255,7.533S289.133,22.893,289.133,41.667"/>
		<path style="fill:#FFE100;" d="M289.133,468.333c0,18.773-15.36,34.133-34.133,34.133s-34.133-15.36-34.133-34.133
			c0-18.773,15.36-34.133,34.133-34.133S289.133,449.56,289.133,468.333"/>
		<path style="fill:#FFE100;" d="M468.333,289.133c-18.773,0-34.133-15.36-34.133-34.133s15.36-34.133,34.133-34.133
			c18.773,0,34.133,15.36,34.133,34.133S487.107,289.133,468.333,289.133"/>
	</g>
	<path style="fill:#FFA800;" d="M468.333,220.867c-2.56,0-5.973,0.853-8.533,0.853c14.507,3.413,25.6,17.067,25.6,33.28
		s-11.093,29.013-25.6,33.28c2.56,0.853,5.973,0.853,8.533,0.853c18.773,0,34.133-15.36,34.133-34.133
		S487.107,220.867,468.333,220.867"/>
	<g>
		<path style="fill:#FFE100;" d="M41.667,289.133c-18.773,0-34.133-15.36-34.133-34.133s15.36-34.133,34.133-34.133
			S75.8,236.227,75.8,255S60.44,289.133,41.667,289.133"/>
		<path style="fill:#FFE100;" d="M128.707,80.067c13.653,13.653,13.653,34.987,0,48.64c-13.653,13.653-34.987,13.653-48.64,0
			c-13.653-13.653-13.653-34.987,0-48.64S115.053,66.413,128.707,80.067"/>
		<path style="fill:#FFE100;" d="M429.933,381.293c13.653,13.653,13.653,34.987,0,48.64c-13.653,13.653-34.987,13.653-48.64,0
			c-13.653-13.653-13.653-34.987,0-48.64C394.947,368.493,416.28,368.493,429.933,381.293"/>
	</g>
	<path style="fill:#FFFFFF;" d="M41.667,220.867c2.56,0,5.973,0.853,8.533,0.853c-14.507,3.413-25.6,17.067-25.6,33.28
		s11.093,29.013,25.6,33.28c-2.56,0-5.973,0.853-8.533,0.853c-18.773,0-34.133-15.36-34.133-34.133S22.893,220.867,41.667,220.867"
		/>
	<g>
		<path style="fill:#FFE100;" d="M429.933,128.707c-13.653,13.653-34.987,13.653-48.64,0c-13.653-13.653-13.653-34.987,0-48.64
			s34.987-13.653,48.64,0C443.587,93.72,443.587,115.053,429.933,128.707"/>
		<path style="fill:#FFE100;" d="M128.707,429.933c-13.653,13.653-34.987,13.653-48.64,0s-13.653-34.987,0-48.64
			c13.653-13.653,34.987-13.653,48.64,0C141.507,394.947,141.507,416.28,128.707,429.933"/>
	</g>
	<path style="fill:#63D3FD;" d="M253.293,383c28.16,0,53.76-8.533,75.093-23.893c-2.56-2.56-4.267-3.413-5.12-4.267l-37.547-17.92
		c-5.12-2.56-7.68-6.827-7.68-11.947V311.32c0.853-0.853,2.56-2.56,3.413-4.267c5.12-6.827,8.533-14.507,11.947-22.187
		c5.12-1.707,8.533-5.973,8.533-10.24v-15.36c0-3.413-1.707-5.973-4.267-8.533V229.4c0,0,4.267-33.28-42.667-33.28
		s-42.667,33.28-42.667,33.28v21.333c-2.56,1.707-4.267,5.12-4.267,8.533v15.36c0,4.267,2.56,7.68,5.12,9.387
		c4.267,16.213,14.507,28.16,14.507,28.16v13.653c0,5.12-2.56,9.387-7.68,11.947l-34.987,17.92c-0.853,0-2.56,2.56-5.12,5.973
		C201.24,374.467,225.987,383,253.293,383"/>
	<path d="M255,391.533c-75.093,0-136.533-61.44-136.533-136.533S179.907,118.467,255,118.467S391.533,179.907,391.533,255
		S330.093,391.533,255,391.533z M255,135.533c-65.707,0-119.467,53.76-119.467,119.467S189.293,374.467,255,374.467
		S374.467,320.707,374.467,255S320.707,135.533,255,135.533z"/>
	<path d="M253.293,391.533c-28.16,0-54.613-8.533-77.653-23.893c-1.707-1.707-3.413-3.413-3.413-5.973s0-5.12,1.707-6.827
		c5.12-5.973,5.973-7.68,7.68-7.68l34.987-17.92c1.707-0.853,2.56-2.56,2.56-4.267V313.88c-3.413-4.267-9.387-13.653-12.8-25.6
		c-4.267-3.413-6.827-8.533-6.827-14.507v-15.36c0-4.267,1.707-8.533,4.267-11.947V229.4c0-3.413-0.853-16.213,8.533-27.307
		c8.533-10.24,23.04-15.36,42.667-15.36s33.28,5.12,42.667,15.36c9.387,11.093,9.387,23.893,8.533,27.307v17.92
		c2.56,3.413,4.267,7.68,4.267,11.947v15.36c0,6.827-4.267,13.653-10.24,17.067c-2.56,7.68-6.827,14.507-11.093,21.333
		c-0.853,0.853-0.853,1.707-1.707,2.56v11.093c0,1.707,0.853,3.413,3.413,4.267l37.547,17.92c0.853,0.853,1.707,0.853,6.827,5.12
		c1.707,1.707,2.56,4.267,2.56,6.827s-1.707,5.12-3.413,6.827C309.613,383,282.307,391.533,253.293,391.533z M195.267,359.96
		c17.92,9.387,37.547,14.507,58.027,14.507s40.96-5.12,58.88-15.36L282.307,344.6c-7.68-3.413-12.8-11.093-12.8-19.627V311.32
		c0-2.56,0.853-4.267,2.56-5.973c0.853-0.853,1.707-2.56,2.56-3.413c4.267-5.973,7.68-12.8,10.24-19.627
		c0.853-2.56,3.413-4.267,5.973-5.12c0.853,0,2.56-0.853,2.56-2.56v-15.36c0-0.853-0.853-1.707-0.853-1.707
		c-1.707-2.56-3.413-4.267-3.413-6.827V229.4v-0.853c0,0,0.853-8.533-5.12-14.507c-5.12-6.827-15.36-10.24-29.013-10.24
		s-23.893,3.413-29.867,9.387c-5.973,5.973-5.12,14.507-5.12,14.507v0.853v21.333c0,2.56-0.853,5.12-2.56,6.827
		c0,0-0.853,0.853-0.853,1.707v15.36c0,0.853,0.853,1.707,1.707,2.56c1.707,0.853,3.413,3.413,3.413,5.12
		c3.413,13.653,11.947,23.893,11.947,24.747c1.707,1.707,1.707,3.413,1.707,5.973v13.653c0,8.533-4.267,15.36-11.947,19.627
		L195.267,359.96z"/>
	<path d="M255,84.333c-23.893,0-42.667-18.773-42.667-42.667S231.107-1,255-1s42.667,18.773,42.667,42.667
		S278.893,84.333,255,84.333z M255,16.067c-14.507,0-25.6,11.093-25.6,25.6s11.093,25.6,25.6,25.6c14.507,0,25.6-11.093,25.6-25.6
		S269.507,16.067,255,16.067z"/>
	<path d="M255,511c-23.893,0-42.667-18.773-42.667-42.667c0-23.893,18.773-42.667,42.667-42.667s42.667,18.773,42.667,42.667
		C297.667,492.227,278.893,511,255,511z M255,442.733c-14.507,0-25.6,11.093-25.6,25.6c0,14.507,11.093,25.6,25.6,25.6
		c14.507,0,25.6-11.093,25.6-25.6C280.6,453.827,269.507,442.733,255,442.733z"/>
	<path d="M468.333,297.667c-23.893,0-42.667-18.773-42.667-42.667s18.773-42.667,42.667-42.667C492.227,212.333,511,231.107,511,255
		S492.227,297.667,468.333,297.667z M468.333,229.4c-14.507,0-25.6,11.093-25.6,25.6c0,14.507,11.093,25.6,25.6,25.6
		c14.507,0,25.6-11.093,25.6-25.6C493.933,240.493,482.84,229.4,468.333,229.4z"/>
	<path d="M41.667,297.667C17.773,297.667-1,278.893-1,255s18.773-42.667,42.667-42.667S84.333,231.107,84.333,255
		S65.56,297.667,41.667,297.667z M41.667,229.4c-14.507,0-25.6,11.093-25.6,25.6c0,14.507,11.093,25.6,25.6,25.6
		s25.6-11.093,25.6-25.6C67.267,240.493,56.173,229.4,41.667,229.4z"/>
	<path d="M255,135.533c-5.12,0-8.533-3.413-8.533-8.533V75.8c0-5.12,3.413-8.533,8.533-8.533s8.533,3.413,8.533,8.533V127
		C263.533,132.12,260.12,135.533,255,135.533z"/>
	<path d="M255,442.733c-5.12,0-8.533-3.413-8.533-8.533V383c0-5.12,3.413-8.533,8.533-8.533s8.533,3.413,8.533,8.533v51.2
		C263.533,439.32,260.12,442.733,255,442.733z"/>
	<path d="M434.2,263.533H383c-5.12,0-8.533-3.413-8.533-8.533s3.413-8.533,8.533-8.533h51.2c5.12,0,8.533,3.413,8.533,8.533
		S439.32,263.533,434.2,263.533z"/>
	<path d="M127,263.533H75.8c-5.12,0-8.533-3.413-8.533-8.533s3.413-8.533,8.533-8.533H127c5.12,0,8.533,3.413,8.533,8.533
		S132.12,263.533,127,263.533z"/>
	<path d="M103.96,146.627c-11.093,0-22.187-4.267-29.867-12.8c-7.68-7.68-12.8-18.773-12.8-29.867s4.267-22.187,12.8-29.867
		c7.68-7.68,18.773-12.8,29.867-12.8s22.187,4.267,29.867,12.8s12.8,18.773,12.8,29.867s-4.267,22.187-12.8,29.867
		C126.147,142.36,115.907,146.627,103.96,146.627z M103.96,78.36c-6.827,0-13.653,2.56-17.92,7.68
		c-5.12,5.12-7.68,11.093-7.68,17.92s2.56,13.653,7.68,17.92c9.387,9.387,26.453,9.387,35.84,0c5.12-5.12,7.68-11.093,7.68-17.92
		s-2.56-12.8-7.68-17.92C117.613,80.92,110.787,78.36,103.96,78.36z"/>
	<path d="M406.04,448.707c-11.093,0-22.187-4.267-29.867-12.8c-16.213-16.213-16.213-43.52,0-60.587
		c7.68-7.68,18.773-12.8,29.867-12.8c11.093,0,22.187,4.267,29.867,12.8c7.68,7.68,12.8,18.773,12.8,29.867
		s-4.267,22.187-12.8,29.867C428.227,444.44,417.133,448.707,406.04,448.707z M406.04,380.44c-6.827,0-13.653,2.56-17.92,7.68
		c-10.24,10.24-10.24,26.453,0,35.84c9.387,9.387,26.453,9.387,35.84,0c5.12-5.12,7.68-11.093,7.68-17.92s-2.56-13.653-7.68-17.92
		C418.84,383.853,412.867,380.44,406.04,380.44z"/>
	<path d="M406.04,146.627c-11.093,0-22.187-4.267-29.867-12.8c-7.68-8.533-12.8-18.773-12.8-29.867s4.267-22.187,12.8-29.867
		c7.68-7.68,18.773-12.8,29.867-12.8c11.093,0,22.187,4.267,29.867,12.8c7.68,7.68,12.8,18.773,12.8,29.867
		s-4.267,22.187-12.8,29.867C427.373,141.507,417.133,146.627,406.04,146.627z M406.04,78.36c-6.827,0-13.653,2.56-17.92,7.68
		c-5.12,5.12-7.68,11.093-7.68,17.92c0,6.827,2.56,13.653,7.68,17.92c9.387,9.387,26.453,9.387,35.84,0
		c5.12-5.12,7.68-11.093,7.68-17.92s-2.56-13.653-7.68-17.92C418.84,80.92,412.867,78.36,406.04,78.36z"/>
	<path d="M103.96,448.707c-11.093,0-22.187-4.267-29.867-12.8c-7.68-7.68-12.8-18.773-12.8-29.867
		c0-11.093,4.267-22.187,12.8-29.867c7.68-7.68,18.773-12.8,29.867-12.8s22.187,4.267,29.867,12.8
		c7.68,8.533,12.8,18.773,12.8,29.867c0,11.093-4.267,22.187-12.8,29.867C125.293,443.587,115.907,448.707,103.96,448.707z
		 M103.96,380.44c-6.827,0-13.653,2.56-17.92,7.68c-5.12,5.12-7.68,11.093-7.68,17.92s2.56,13.653,7.68,17.92
		c9.387,9.387,26.453,9.387,35.84,0c5.12-5.12,7.68-11.093,7.68-17.92s-2.56-13.653-7.68-17.92
		C117.613,383,110.787,380.44,103.96,380.44z"/>
	<path d="M164.547,173.08c-2.56,0-4.267-0.853-5.973-2.56l-35.84-35.84c-3.413-3.413-3.413-8.533,0-11.947s8.533-3.413,11.947,0
		l35.84,35.84c3.413,3.413,3.413,8.533,0,11.947C168.813,172.227,166.253,173.08,164.547,173.08z"/>
	<path d="M381.293,389.827c-2.56,0-4.267-0.853-5.973-2.56l-35.84-35.84c-3.413-3.413-3.413-8.533,0-11.947
		c3.413-3.413,8.533-3.413,11.947,0l35.84,35.84c3.413,3.413,3.413,8.533,0,11.947C386.413,389.827,383.853,389.827,381.293,389.827
		z"/>
	<path d="M345.453,173.08c-2.56,0-4.267-0.853-5.973-2.56c-3.413-3.413-3.413-8.533,0-11.947l35.84-35.84
		c3.413-3.413,8.533-3.413,11.947,0c3.413,3.413,3.413,8.533,0,11.947l-35.84,35.84C349.72,172.227,348.013,173.08,345.453,173.08z"
		/>
	<path d="M128.707,389.827c-2.56,0-4.267-0.853-5.973-2.56c-3.413-3.413-3.413-8.533,0-11.947l35.84-35.84
		c3.413-3.413,8.533-3.413,11.947,0c3.413,3.413,3.413,8.533,0,11.947l-35.84,35.84
		C132.973,389.827,130.413,389.827,128.707,389.827z"/>
</g>
</svg>