<?xml version="1.0" encoding="iso-8859-1"?>
<!-- Uploaded to: SVG Repo, www.svgrepo.com, Generator: SVG Repo Mixer Tools -->
<!DOCTYPE svg PUBLIC "-//W3C//DTD SVG 1.1//EN" "http://www.w3.org/Graphics/SVG/1.1/DTD/svg11.dtd">
<svg height="800px" width="800px" version="1.1" id="Capa_1" xmlns="http://www.w3.org/2000/svg" xmlns:xlink="http://www.w3.org/1999/xlink" 
	 viewBox="0 0 412.256 412.256" xml:space="preserve">
<g>
	<g>
		<path style="fill:none;" d="M150.395,280.896c30.959,0,56.146-31.062,56.146-69.244c0-38.18-25.188-69.242-56.146-69.242
			S94.25,173.472,94.25,211.651C94.25,249.833,119.438,280.896,150.395,280.896z"/>
		<path style="fill:#73D0F4;" d="M241.34,331.284c-24.133-17.017-56.432-26.389-90.945-26.389c-34.512,0-66.811,9.371-90.945,26.389
			c-18.67,13.164-30.488,29.596-34.195,47.193H70.25v-21.432c0-6.627,5.373-12,12-12c6.627,0,12,5.373,12,12v21.432h112.291v-21.432
			c0-6.627,5.373-12,12-12c6.627,0,12,5.373,12,12v21.432h44.994C271.83,360.88,260.01,344.448,241.34,331.284z"/>
		<path style="fill:#3D6889;" d="M255.17,311.669c-16.381-11.551-35.838-20.074-57.012-25.188
			c19.639-17.01,32.383-44.221,32.383-74.83c0-51.414-35.953-93.242-80.146-93.242c-44.191,0-80.145,41.828-80.145,93.242
			c0,30.609,12.744,57.82,32.383,74.83c-21.174,5.113-40.631,13.637-57.014,25.188C16.201,332.411,0,360.399,0,390.478
			c0,6.627,5.373,12,12,12h276.791c6.627,0,12-5.373,12-12C300.791,360.399,284.59,332.411,255.17,311.669z M94.25,211.651
			c0-38.18,25.186-69.242,56.145-69.242s56.146,31.063,56.146,69.242c0,38.182-25.188,69.244-56.146,69.244
			C119.438,280.896,94.25,249.833,94.25,211.651z M230.541,378.478v-21.432c0-6.627-5.373-12-12-12c-6.627,0-12,5.373-12,12v21.432
			H94.25v-21.432c0-6.627-5.373-12-12-12c-6.627,0-12,5.373-12,12v21.432H25.254c3.707-17.598,15.525-34.029,34.195-47.193
			c24.135-17.017,56.434-26.389,90.945-26.389c34.514,0,66.813,9.371,90.945,26.389c18.67,13.164,30.49,29.596,34.195,47.193
			H230.541z"/>
		<path style="fill:#3D6889;" d="M267.58,33.778h132.676c6.627,0,12-5.373,12-12c0-6.627-5.373-12-12-12H267.58
			c-6.627,0-12,5.373-12,12C255.58,28.405,260.953,33.778,267.58,33.778z"/>
		<path style="fill:#3D6889;" d="M400.256,83.333H267.58c-6.627,0-12,5.373-12,12c0,6.629,5.373,12,12,12h132.676
			c6.627,0,12-5.371,12-12C412.256,88.706,406.883,83.333,400.256,83.333z"/>
		<path style="fill:#3D6889;" d="M400.256,156.89H267.58c-6.627,0-12,5.373-12,12c0,6.627,5.373,12,12,12h132.676
			c6.627,0,12-5.373,12-12C412.256,162.263,406.883,156.89,400.256,156.89z"/>
	</g>
</g>
</svg>