<svg id="books-stack-of-three" xmlns="http://www.w3.org/2000/svg" width="44.457" height="34.703" viewBox="0 0 44.457 34.703">
  <g id="Grupo_406" data-name="Grupo 406" transform="translate(0 0)">
    <path id="Trazado_544" data-name="Trazado 544" d="M41.284,47.242c-.18-1.351-.205-3.679,1.05-4.461a.47.47,0,0,0,.059-.053c1.026-.328,1.736-.789,1.179-1.409L28.434,36.758,3.921,40.166s-2.807.4-2.556,4.762C1.5,47.3,2.246,48.467,2.9,49.041l-2.011.606c-.558.62.152,1.081,1.178,1.408a.406.406,0,0,0,.059.053c1.254.782,1.23,3.11,1.05,4.461-4.507,1.28-2.889,1.7-2.889,1.7l.989.239c-.7.628-1.386,1.82-1.257,4.08.251,4.36,2.557,4.661,2.557,4.661l16.041,5.214L42.824,65.6s1.618-.418-2.89-1.7c-.181-1.35-.206-3.677,1.051-4.461a.371.371,0,0,0,.059-.053c1.026-.328,1.736-.788,1.178-1.408l-1.052-.318c.7-.423,1.756-1.529,1.921-4.4a5.1,5.1,0,0,0-1-3.815l2.08-.5S45.792,48.521,41.284,47.242Zm-20.252-.056,4.072-.837,13.759-2.828,2.05-.422a7.1,7.1,0,0,0-.519,3.894c.024.239.051.456.078.622l-2.244.558-17.367,4.32ZM3.543,51.429l2.05.422,13.214,2.716,1.154.236h0l3.462.712.171,5.308L5.745,56.383l-1.76-.437c.026-.166.053-.383.078-.623A7.1,7.1,0,0,0,3.543,51.429Zm-.8-6.711a3.442,3.442,0,0,1,.6-2.425,1.089,1.089,0,0,1,.795-.329,1.348,1.348,0,0,1,.2.016L14.9,45.423l5.269,1.718L20,52.487,5.218,48.342l-.78-.219a.473.473,0,0,0-.1-.015C4.28,48.1,2.818,47.97,2.747,44.718Zm15.9,24.427L3.088,64.782a.463.463,0,0,0-.1-.015c-.062,0-1.524-.139-1.595-3.389A3.446,3.446,0,0,1,2,58.951a1.091,1.091,0,0,1,.8-.329,1.405,1.405,0,0,1,.2.015h0L18.823,63.8Zm20.393-5.494c.025.239.052.457.078.623L19.511,69.152l.171-5.308,4.193-.862.619.15,2.321-.754,10.7-2.2,2.051-.422A7.091,7.091,0,0,0,39.043,63.651Zm1.08-7.214a.377.377,0,0,0-.1.016l-1.479.414L24.457,60.816l-.172-5.345L28.9,53.964l11.188-3.649a1.165,1.165,0,0,1,1.019.307,3.448,3.448,0,0,1,.6,2.425C41.639,56.3,40.177,56.433,40.124,56.437Z" transform="translate(0.001 -36.758)" fill="#0095a9"/>
  </g>
</svg>
