<svg id="business-and-finance" xmlns="http://www.w3.org/2000/svg" width="45.05" height="33.13" viewBox="0 0 45.05 33.13">
  <path id="Trazado_563" data-name="Trazado 563" d="M150.916,180.934H145.7a.88.88,0,0,0-.88.88v.743h-5.48a.876.876,0,0,0-.337.067l-7.019,2.9a3.273,3.273,0,0,0-1.762,4.3l.024.056a3.374,3.374,0,0,0,.867,1.212,6.743,6.743,0,0,1-3.277.064l-6.891-1.578a3.193,3.193,0,0,0-1.5,6.206l8.222,2.09a8.481,8.481,0,0,0,5.212-.326l10.457-4.1h1.482v.463a.88.88,0,0,0,.88.88h5.211a.88.88,0,0,0,.88-.88v-12.1A.88.88,0,0,0,150.916,180.934Zm-7.74,10.758a.883.883,0,0,0-.321.06l-10.612,4.162a6.729,6.729,0,0,1-4.136.258l-8.222-2.09a1.433,1.433,0,0,1,.673-2.785l6.891,1.578a8.5,8.5,0,0,0,4.961-.353l2-.769.123-.045c1.768-.682,4.024-1.549,4.509-1.736l.095-.036a.88.88,0,1,0-.632-1.643l-.1.04-4.586,1.764a1.579,1.579,0,0,1-1.943-.9l-.024-.056a1.513,1.513,0,0,1,.815-1.987l6.858-2.838h5.3v7.375Zm6.86,1.343h-3.451V182.693h3.451Zm0,0" transform="translate(-106.746 -165.014)" fill="#0095a9"/>
  <path id="Trazado_564" data-name="Trazado 564" d="M8.569,15.552h-1.6V7.331h.244a4.136,4.136,0,0,0,1.879-.453.867.867,0,0,0,.079-.046l5.7-3.718a2.372,2.372,0,0,1,2.449.228l.411.307c-.025.035-.049.071-.074.107-.109.158-.213.319-.311.484A8.537,8.537,0,0,0,16.2,7.565a2.654,2.654,0,0,0,.289,5.292h6.514a1.348,1.348,0,0,1,.543,2.582,1.145,1.145,0,0,1-.156.057l-.013,0a1.343,1.343,0,0,1-.374.052h-7.4a.88.88,0,1,0,0,1.76h7.4a3.123,3.123,0,0,0,.669-.073,8.785,8.785,0,0,0,1.116.073,8.656,8.656,0,1,0-5.9-14.992l-.522-.389a4.142,4.142,0,0,0-4.343-.365.906.906,0,0,0-.079.046L8.253,5.33a2.368,2.368,0,0,1-1.038.241H6.971V5.252a.88.88,0,0,0-.88-.88H.88a.88.88,0,0,0-.88.88v12.1a.88.88,0,0,0,.88.88H6.091a.88.88,0,0,0,.88-.88v-.042h1.6a.88.88,0,1,0,0-1.76ZM15.6,10.2a.893.893,0,0,1,.566-.832,8.558,8.558,0,0,0,.32,1.725A.9.9,0,0,1,15.6,10.2ZM31.689,8.657a6.907,6.907,0,0,1-5.843,6.816,3.132,3.132,0,0,0,.269-1.268,3.091,3.091,0,0,0-.386-1.5,1.84,1.84,0,0,0,1.554-1.819v-1.3A1.846,1.846,0,0,0,25.438,7.74H24.148a.084.084,0,0,1-.084-.084V6.428a.084.084,0,0,1,.084-.084h1.291a.084.084,0,0,1,.084.084.88.88,0,0,0,1.76,0A1.846,1.846,0,0,0,25.673,4.6V4.3a.88.88,0,0,0-1.76,0v.3A1.845,1.845,0,0,0,22.3,6.428V7.656A1.846,1.846,0,0,0,24.148,9.5h1.291a.084.084,0,0,1,.084.084v1.3a.084.084,0,0,1-.084.084H24.148a.084.084,0,0,1-.084-.084v-.119a.88.88,0,1,0-1.76,0v.119a1.878,1.878,0,0,0,.013.212H18.34a6.909,6.909,0,0,1,.614-6.11,7.024,7.024,0,0,1,.666-.89,6.9,6.9,0,0,1,12.069,4.56ZM5.211,16.474H1.76V6.132H5.211Zm0,0" fill="#0095a9"/>
  <path id="Trazado_565" data-name="Trazado 565" d="M128.693,177.16a.879.879,0,1,0-.109,1.111A.885.885,0,0,0,128.693,177.16Zm0,0" transform="translate(-115.9 -161.216)" fill="#0095a9"/>
</svg>
