<svg id="car_1_" data-name="car (1)" xmlns="http://www.w3.org/2000/svg" width="38.027" height="29.414" viewBox="0 0 38.027 29.414">
  <g id="Grupo_378" data-name="Grupo 378" transform="translate(0 0)">
    <g id="Grupo_377" data-name="Grupo 377" transform="translate(0 0)">
      <path id="Trazado_529" data-name="Trazado 529" d="M36.573,63.929l-.829-.878L32.835,55.21A3.412,3.412,0,0,0,29.658,53H8.881A3.4,3.4,0,0,0,5.7,55.21L2.836,62.954,1.641,64.059A4.669,4.669,0,0,0,0,67.61V79.034a3.4,3.4,0,0,0,3.4,3.38H5.542a3.4,3.4,0,0,0,3.4-3.38V77.377H29.089v1.658a3.4,3.4,0,0,0,3.4,3.38h2.145a3.4,3.4,0,0,0,3.4-3.38V67.309A4.712,4.712,0,0,0,36.573,63.929ZM7.232,55.763a1.757,1.757,0,0,1,1.649-1.138H29.666a1.769,1.769,0,0,1,1.649,1.138l2.535,6.825H31.958a5.573,5.573,0,0,0-11.026,0H4.7ZM30.3,62.588H22.573a3.947,3.947,0,0,1,7.727,0ZM7.313,79.034a1.767,1.767,0,0,1-1.771,1.755H3.4a1.767,1.767,0,0,1-1.771-1.755V76.905a3.3,3.3,0,0,0,1.771.471H7.313Zm29.089,0a1.767,1.767,0,0,1-1.771,1.755H32.486a1.772,1.772,0,0,1-1.771-1.755V77.377h3.916a3.3,3.3,0,0,0,1.771-.471v2.129Zm-1.771-3.283H3.4a1.753,1.753,0,0,1-1.771-1.739v-6.4a3.051,3.051,0,0,1,1.081-2.324l.033-.033,1.105-1.04H34.615l.78.837c.008.016.033.024.041.041a3.062,3.062,0,0,1,.959,2.218v6.7H36.4A1.758,1.758,0,0,1,34.631,75.751Z" transform="translate(0 -53)" fill="#0095a9"/>
    </g>
  </g>
  <g id="Grupo_380" data-name="Grupo 380" transform="translate(3.819 14.463)">
    <g id="Grupo_379" data-name="Grupo 379" transform="translate(0 0)">
      <path id="Trazado_530" data-name="Trazado 530" d="M53.907,231H47.813a.815.815,0,0,0-.813.813v4.225a.815.815,0,0,0,.813.813h6.094a.815.815,0,0,0,.813-.813v-4.225A.815.815,0,0,0,53.907,231Zm-.813,4.225H48.625v-2.6h4.469Z" transform="translate(-47 -231)" fill="#0095a9"/>
    </g>
  </g>
  <g id="Grupo_382" data-name="Grupo 382" transform="translate(26.489 14.463)">
    <g id="Grupo_381" data-name="Grupo 381" transform="translate(0 0)">
      <path id="Trazado_531" data-name="Trazado 531" d="M332.907,231h-6.094a.815.815,0,0,0-.813.813v4.225a.815.815,0,0,0,.813.813h6.094a.815.815,0,0,0,.813-.813v-4.225A.815.815,0,0,0,332.907,231Zm-.813,4.225h-4.469v-2.6h4.469Z" transform="translate(-326 -231)" fill="#0095a9"/>
    </g>
  </g>
  <g id="Grupo_384" data-name="Grupo 384" transform="translate(14.277 17.876)">
    <g id="Grupo_383" data-name="Grupo 383" transform="translate(0 0)">
      <path id="Trazado_532" data-name="Trazado 532" d="M184.362,273h-7.849a.813.813,0,0,0,0,1.625h7.849a.813.813,0,0,0,0-1.625Z" transform="translate(-175.7 -273)" fill="#0095a9"/>
    </g>
  </g>
  <g id="Grupo_386" data-name="Grupo 386" transform="translate(14.277 15.357)">
    <g id="Grupo_385" data-name="Grupo 385">
      <path id="Trazado_533" data-name="Trazado 533" d="M184.362,242h-7.849a.813.813,0,1,0,0,1.625h7.849a.813.813,0,1,0,0-1.625Z" transform="translate(-175.7 -242)" fill="#0095a9"/>
    </g>
  </g>
</svg>
