<svg id="cutlery" xmlns="http://www.w3.org/2000/svg" width="38.852" height="38.976" viewBox="0 0 38.852 38.976">
  <g id="Grupo_388" data-name="Grupo 388" transform="translate(0 0)">
    <g id="Grupo_387" data-name="Grupo 387" transform="translate(0)">
      <path id="Trazado_534" data-name="Trazado 534" d="M11.509,2.438A5.6,5.6,0,0,0,7.032,0,5.6,5.6,0,0,0,2.556,2.438,9.277,9.277,0,0,0,.819,7.99a9.277,9.277,0,0,0,1.737,5.552,6.27,6.27,0,0,0,2.3,1.937L3.539,35.245a3.5,3.5,0,1,0,6.987,0L9.211,15.479a6.27,6.27,0,0,0,2.3-1.937A9.278,9.278,0,0,0,13.246,7.99,9.277,9.277,0,0,0,11.509,2.438ZM8.283,36.649a1.714,1.714,0,0,1-2.961-1.285L6.613,15.957c.139.012.279.02.419.02s.28-.008.419-.02L8.742,35.364A1.7,1.7,0,0,1,8.283,36.649ZM7.032,14.188a3.221,3.221,0,0,1-.934-.14c-.025-.009-.05-.018-.076-.025-1.955-.642-3.416-3.1-3.416-6.034,0-3.418,1.985-6.2,4.426-6.2s4.426,2.781,4.426,6.2S9.473,14.188,7.032,14.188Z" transform="translate(-0.819 -0.003)" fill="#0095a9"/>
    </g>
  </g>
  <g id="Grupo_390" data-name="Grupo 390" transform="translate(31.662 0)">
    <g id="Grupo_389" data-name="Grupo 389" transform="translate(0 0)">
      <path id="Trazado_535" data-name="Trazado 535" d="M423.934,23.288V1.006l-.008,0A.894.894,0,0,0,422.57.134a12.207,12.207,0,0,0-5.825,10.447V22.288a1.9,1.9,0,0,0,1.84,1.895V36.289a2.675,2.675,0,0,0,5.349,0v-13S423.934,23.29,423.934,23.288Zm-5.291-.89a.11.11,0,0,1-.11-.11V10.583h0a10.42,10.42,0,0,1,3.613-7.928V22.4Zm3.5,13.89a.887.887,0,0,1-1.774,0v-12.1h1.774Z" transform="translate(-416.745 0)" fill="#0095a9"/>
    </g>
  </g>
  <g id="Grupo_392" data-name="Grupo 392" transform="translate(16.247 0)">
    <g id="Grupo_391" data-name="Grupo 391">
      <path id="Trazado_536" data-name="Trazado 536" d="M223.269,0a.894.894,0,0,0-.894.894V11.052H220.1V.9a.894.894,0,1,0-1.788,0V11.052h-2.278V.9a.894.894,0,1,0-1.788,0v12.94a2.646,2.646,0,0,0,2.643,2.643h.159l-1.254,18.852a3.419,3.419,0,1,0,6.824,0L221.361,16.48h.159a2.646,2.646,0,0,0,2.643-2.643V.9A.894.894,0,0,0,223.269,0ZM220.4,36.674a1.632,1.632,0,0,1-2.82-1.223l1.262-18.972h.732l1.262,18.972A1.614,1.614,0,0,1,220.4,36.674Zm1.98-22.837a.856.856,0,0,1-.855.855h-4.634a.856.856,0,0,1-.855-.855v-1h6.343Z" transform="translate(-214.244 -0.003)" fill="#0095a9"/>
    </g>
  </g>
</svg>
