<svg id="heart_1_" data-name="heart (1)" xmlns="http://www.w3.org/2000/svg" width="43.368" height="31.743" viewBox="0 0 43.368 31.743">
  <g id="Grupo_405" data-name="Grupo 405" transform="translate(0 0)">
    <path id="Trazado_543" data-name="Trazado 543" d="M42.626,71.612H38.957a11.618,11.618,0,0,0,.783-8.162A9.813,9.813,0,0,0,30.465,56.4a11.6,11.6,0,0,0-4,.742,20.741,20.741,0,0,0-4.617,2.309,19.793,19.793,0,0,0-4.617-2.309,11.774,11.774,0,0,0-4-.742,9.813,9.813,0,0,0-9.276,7.049,11.965,11.965,0,0,0,1.154,8.9H.66a.66.66,0,1,0,0,1.319H5.9a8.7,8.7,0,0,0,.742,1.113c4.287,6.184,13.6,12.9,15.294,13.316v.041a.128.128,0,0,0,.082-.041h.124v-.041c1.443-.7,10.389-6.472,15.088-13.316A15.165,15.165,0,0,0,38.38,72.89h4.329a.651.651,0,0,0,.66-.66A.693.693,0,0,0,42.626,71.612Zm-6.6,2.432c-4.37,6.39-12.409,11.543-14.14,12.656-1.773-1.113-9.77-6.307-14.181-12.656l-.247-.371h6.06a.68.68,0,0,0,.618-.371L16.9,67.86,21.231,78.95a.675.675,0,0,0,.618.412h.041a.657.657,0,0,0,.618-.495L26.3,65.882l2.02,6.555a.672.672,0,0,0,.536.453.714.714,0,0,0,.66-.289l1.608-2.35,1.36,2.309a.658.658,0,0,0,.577.33h3.71C36.525,73.3,36.278,73.673,36.03,74.044Zm1.484-2.432h-4.04l-1.69-2.886a.658.658,0,0,0-.577-.33.624.624,0,0,0-.577.289l-1.4,2.061-2.267-7.379a.765.765,0,0,0-.66-.495.706.706,0,0,0-.66.495L21.808,76.6,17.644,65.964a.62.62,0,0,0-.577-.412.639.639,0,0,0-.618.371l-3.257,6.39H6.637a11.124,11.124,0,0,1-1.36-8.492,8.422,8.422,0,0,1,8-6.06,10.967,10.967,0,0,1,3.545.66,20.041,20.041,0,0,1,4.658,2.391.627.627,0,0,0,.824,0,17.973,17.973,0,0,1,4.658-2.391,9.966,9.966,0,0,1,3.545-.66,8.463,8.463,0,0,1,8,6.06A10.838,10.838,0,0,1,37.514,71.612Z" transform="translate(0 -56.4)" fill="#0095a9"/>
  </g>
</svg>
