<svg id="home" xmlns="http://www.w3.org/2000/svg" width="41.246" height="36.767" viewBox="0 0 41.246 36.767">
  <g id="Grupo_394" data-name="Grupo 394" transform="translate(0 0)">
    <g id="Grupo_393" data-name="Grupo 393" transform="translate(0 0)">
      <path id="Trazado_537" data-name="Trazado 537" d="M40.807,42.319,21.255,28a1.071,1.071,0,0,0-1.266,0L.438,42.319A1.072,1.072,0,1,0,1.7,44.049L20.622,30.2,39.54,44.049a1.072,1.072,0,0,0,1.266-1.729Z" transform="translate(0.001 -27.798)" fill="#0095a9"/>
    </g>
  </g>
  <g id="Grupo_396" data-name="Grupo 396" transform="translate(4.548 16.494)">
    <g id="Grupo_395" data-name="Grupo 395">
      <path id="Trazado_538" data-name="Trazado 538" d="M87.531,232.543a1.072,1.072,0,0,0-1.072,1.072v17.058H77.886v-9.311a5.359,5.359,0,0,0-10.717,0v9.311H58.6V233.615a1.072,1.072,0,0,0-2.143,0v18.13a1.072,1.072,0,0,0,1.072,1.072H68.24a1.071,1.071,0,0,0,1.067-.988.808.808,0,0,0,0-.083V241.361a3.215,3.215,0,0,1,6.431,0v10.383a.786.786,0,0,0,0,.082,1.071,1.071,0,0,0,1.067.989H87.531a1.072,1.072,0,0,0,1.072-1.072v-18.13A1.072,1.072,0,0,0,87.531,232.543Z" transform="translate(-56.452 -232.543)" fill="#0095a9"/>
    </g>
  </g>
</svg>
