<svg id="loan" xmlns="http://www.w3.org/2000/svg" width="42.553" height="42.544" viewBox="0 0 42.553 42.544">
  <path id="Trazado_545" data-name="Trazado 545" d="M416.26,78.382a1.975,1.975,0,1,0-1.974-1.975A1.977,1.977,0,0,0,416.26,78.382Zm0-2.7a.728.728,0,1,1-.728.728A.729.729,0,0,1,416.26,75.68Z" transform="translate(-379.853 -68.251)" fill="#0095a9"/>
  <path id="Trazado_546" data-name="Trazado 546" d="M202.963,76.408a1.975,1.975,0,1,0,1.975-1.975A1.977,1.977,0,0,0,202.963,76.408Zm1.975-.728a.728.728,0,1,1-.728.728A.729.729,0,0,1,204.938,75.68Z" transform="translate(-186.095 -68.251)" fill="#0095a9"/>
  <path id="Trazado_547" data-name="Trazado 547" d="M181.681.054H153.705a.941.941,0,0,0-.94.94V15.369a.941.941,0,0,0,.94.94h23.708a.623.623,0,0,0,0-1.247h-23.4V1.3h27.363V15.062h-1.053a.623.623,0,0,0,0,1.247h1.359a.941.941,0,0,0,.94-.94V.994a.941.941,0,0,0-.94-.94Z" transform="translate(-140.069 -0.054)" fill="#0095a9"/>
  <path id="Trazado_548" data-name="Trazado 548" d="M180.826,25.2h-.891a.623.623,0,0,0-.623.623.778.778,0,0,1-.777.777.623.623,0,0,0-.623.623v8.027a.623.623,0,0,0,.623.623.778.778,0,0,1,.777.777.623.623,0,0,0,.623.623h21.629a.623.623,0,0,0,.623-.623.778.778,0,0,1,.777-.777.623.623,0,0,0,.623-.623V27.225a.623.623,0,0,0-.623-.623.778.778,0,0,1-.777-.777.623.623,0,0,0-.623-.623H183.734a.623.623,0,1,0,0,1.247h3.345a6.031,6.031,0,0,0,0,9.582H180.46a2.034,2.034,0,0,0-1.3-1.3V27.75a2.034,2.034,0,0,0,1.3-1.3h.365a.623.623,0,0,0,0-1.247Zm20.213,1.247a2.033,2.033,0,0,0,1.3,1.3v6.977a2.033,2.033,0,0,0-1.3,1.3H194.42a6.031,6.031,0,0,0,0-9.582h6.619Zm-15.08,4.791a4.791,4.791,0,1,1,4.791,4.791A4.8,4.8,0,0,1,185.958,31.239Z" transform="translate(-163.125 -23.111)" fill="#0095a9"/>
  <path id="Trazado_549" data-name="Trazado 549" d="M.623,246.266H11.99a.623.623,0,0,0,.441-.183l2.062-2.062a.623.623,0,0,0,.064-.806l2.473-2.473a.623.623,0,0,0,.049-.826l1.082-1.082a5.382,5.382,0,0,1,3.831-1.587h4.133a.623.623,0,0,0,0-1.247H21.992a6.621,6.621,0,0,0-4.712,1.952L16.2,239.032l-5.951-5.951,1.411-1.411a3.835,3.835,0,0,0,1.054-1.918,3.614,3.614,0,0,1,.984-1.814l3.9-3.9a2.068,2.068,0,0,1,2.965.042,2.111,2.111,0,0,1-.08,2.922l-.658.658a2.2,2.2,0,0,0,1.556,3.756h8.384a2.919,2.919,0,0,0,2.078-.861l4.181-4.177a2.068,2.068,0,0,1,2.846,3L33.1,235.15a2.887,2.887,0,0,1-2.055.851H29.034a.623.623,0,1,0,0,1.247h2.008a4.125,4.125,0,0,0,2.936-1.216l5.776-5.776a3.315,3.315,0,0,0-4.166-5.112,3.3,3.3,0,0,0-3.646,0,3.3,3.3,0,0,0-4.166.426l-4.1,4.1a1.681,1.681,0,0,1-1.2.5H21.383a.953.953,0,0,1-.674-1.627l.658-.658a3.365,3.365,0,0,0,.1-4.66,3.314,3.314,0,0,0-4.752-.067l-3.9,3.9a4.858,4.858,0,0,0-1.322,2.438,2.59,2.59,0,0,1-.716,1.294L9.368,232.2a.623.623,0,0,0-.873.008l-2.467,2.467-.108-.108a.623.623,0,0,0-.881,0L.183,239.421a.623.623,0,0,0-.183.441v5.781a.623.623,0,0,0,.623.623Zm33.988-20.242-3.647,3.647a1.681,1.681,0,0,1-1.2.5H28.586l3.8-3.791A2.031,2.031,0,0,1,34.611,226.023Zm-5.953.426a2.061,2.061,0,0,1,2.308-.426l-3.647,3.647a1.681,1.681,0,0,1-1.2.5H24.941ZM6.909,235.556l2.026-2.026,6.772,6.772-2.026,2.026ZM1.247,240.12l4.231-4.231,7.692,7.692-1.438,1.438H1.247Z" transform="translate(0 -203.722)" fill="#0095a9"/>
  <path id="Trazado_550" data-name="Trazado 550" d="M310.212,53.684h-.5a.536.536,0,0,1,0-1.071h.5a.535.535,0,0,1,.494.327.623.623,0,0,0,1.148-.486,1.779,1.779,0,0,0-1.269-1.049v-.421a.623.623,0,1,0-1.247,0v.421a1.782,1.782,0,0,0,.373,3.525h.5a.536.536,0,1,1,0,1.071h-.5a.533.533,0,0,1-.5-.341.623.623,0,1,0-1.161.453,1.77,1.77,0,0,0,1.288,1.1v.42a.623.623,0,1,0,1.247,0v-.421a1.782,1.782,0,0,0-.373-3.525Z" transform="translate(-282.338 -46.18)" fill="#0095a9"/>
</svg>
