<svg id="talk" xmlns="http://www.w3.org/2000/svg" width="40.324" height="36.729" viewBox="0 0 40.324 36.729">
  <g id="Grupo_376" data-name="Grupo 376" transform="translate(0 0)">
    <g id="Grupo_375" data-name="Grupo 375" transform="translate(0 0)">
      <path id="Trazado_527" data-name="Trazado 527" d="M20.912,156.682c-.2-.484-.374-.96-.547-1.42-1.039-2.776-2.112-5.645-6.273-6.817a12.219,12.219,0,0,0-10.879,2.8A9.964,9.964,0,0,0,0,158.635a13.933,13.933,0,0,0,1.877,7.029c.414.7.817,1.3,1.207,1.884,1.337,2.005,2.221,3.329,1.87,5.952a1.29,1.29,0,0,0,1.279,1.461h8.445a1.29,1.29,0,0,0,0-2.581H7.612c-.009-2.71-1.166-4.444-2.38-6.265-.372-.557-.756-1.133-1.137-1.772a11.313,11.313,0,0,1-1.514-5.709,7.311,7.311,0,0,1,2.385-5.5,9.631,9.631,0,0,1,8.427-2.206c2.9.817,3.561,2.575,4.556,5.237.18.482.367.979.572,1.487a9.826,9.826,0,0,0,1.167,1.877,8.92,8.92,0,0,1,1.2,1.979,2.176,2.176,0,0,1-.53.157,1.291,1.291,0,0,0-.926.719,2.932,2.932,0,0,0,.171,2.639c.068.148.171.371.182.412a.824.824,0,0,1-.2.24,1.289,1.289,0,0,0-.391,1.076c.193,1.719-.258,1.788-1.933,2.042a6.013,6.013,0,0,0-2.528.786,1.29,1.29,0,0,0,1.446,2.137,4.349,4.349,0,0,1,1.468-.372c1.522-.231,4.292-.651,4.156-4.292a2.8,2.8,0,0,0,.138-3.111l-.03-.067a2.536,2.536,0,0,0,1.4-1.375c.6-1.52-.533-3.093-1.536-4.482A9.149,9.149,0,0,1,20.912,156.682Z" transform="translate(0 -138.231)" fill="#0095a9"/>
      <path id="Trazado_528" data-name="Trazado 528" d="M291.919,29.864a9.394,9.394,0,0,0-18.192,4.7,9.254,9.254,0,0,0,1.78,3.536l.275,4.891a1.291,1.291,0,0,0,1.973,1.022l3.96-2.469a9.4,9.4,0,0,0,10.2-11.676Zm-7.393,8.944a6.811,6.811,0,0,1-2.871.116,1.3,1.3,0,0,0-.905.176l-2.512,1.566-.177-3.149a1.3,1.3,0,0,0-.327-.788,6.7,6.7,0,0,1-1.506-2.815,6.813,6.813,0,1,1,8.3,4.893Z" transform="translate(-251.894 -22.818)" fill="#0095a9"/>
    </g>
  </g>
</svg>
